STARTFONT 2.1
FONT -FontForge-Bitstream Vera Sans Mono-Book-R-Normal-SansMono--48-460-75-75-P-288-ISO8859-1
SIZE 46 75 75
FONTBOUNDINGBOX 29 57 0 -12
COMMENT "Generated by fontforge, http://fontforge.sourceforge.net"
COMMENT "Copyright (c) 2003 by Bitstream, Inc. All Rights Reserved."
STARTPROPERTIES 40
FOUNDRY "FontForge"
FAMILY_NAME "Bitstream Vera Sans Mono"
WEIGHT_NAME "Book"
SLANT "R"
SETWIDTH_NAME "Normal"
ADD_STYLE_NAME "SansMono"
PIXEL_SIZE 48
POINT_SIZE 460
RESOLUTION_X 75
RESOLUTION_Y 75
SPACING "P"
AVERAGE_WIDTH 288
CHARSET_REGISTRY "ISO8859"
CHARSET_ENCODING "1"
FONTNAME_REGISTRY ""
CHARSET_COLLECTIONS "ISO8859-9 ISOLatin1Encoding"
FONT_NAME "BitstreamVeraSansMono-Roman"
FACE_NAME "Bitstream Vera Sans Mono"
COPYRIGHT "Copyright (c) 2003 by Bitstream, Inc. All Rights Reserved."
FONT_VERSION "Release 1.10"
FONT_ASCENT 36
FONT_DESCENT 12
UNDERLINE_POSITION -7
UNDERLINE_THICKNESS 4
X_HEIGHT 25
CAP_HEIGHT 34
RAW_ASCENT 759
RAW_DESCENT 240
NORM_SPACE 29
RELATIVE_WEIGHT 40
RELATIVE_SETWIDTH 50
SUPERSCRIPT_X 0
SUPERSCRIPT_Y 13
SUPERSCRIPT_SIZE 28
SUBSCRIPT_X 0
SUBSCRIPT_Y -10
SUBSCRIPT_SIZE 28
FIGURE_WIDTH 29
AVG_LOWERCASE_WIDTH 290
AVG_UPPERCASE_WIDTH 290
ENDPROPERTIES
CHARS 269
STARTCHAR space
ENCODING 32
SWIDTH 602 0
DWIDTH 29 0
BBX 1 1 0 0
BITMAP
00
ENDCHAR
STARTCHAR exclam
ENCODING 33
SWIDTH 602 0
DWIDTH 29 0
BBX 4 35 12 0
BITMAP
F0
F0
F0
F0
F0
F0
F0
F0
F0
F0
F0
F0
F0
F0
F0
F0
F0
F0
F0
F0
F0
F0
F0
F0
00
00
00
00
00
F0
F0
F0
F0
F0
F0
ENDCHAR
STARTCHAR quotedbl
ENCODING 34
SWIDTH 602 0
DWIDTH 29 0
BBX 13 13 8 22
BITMAP
F078
F078
F078
F078
F078
F078
F078
F078
F078
F078
F078
F078
F078
ENDCHAR
STARTCHAR numbersign
ENCODING 35
SWIDTH 602 0
DWIDTH 29 0
BBX 29 35 0 0
BITMAP
000F03C0
000F0380
000F0780
001E0780
001E0780
001E0700
001E0F00
003C0F00
003C0F00
003C0E00
1FFFFFF8
1FFFFFF8
1FFFFFF8
1FFFFFF8
00783C00
00703C00
00F03C00
00F03800
00F07800
01E07800
01E07800
FFFFFFC0
FFFFFFC0
FFFFFFC0
FFFFFFC0
03C0E000
03C1E000
0781E000
0781E000
0781C000
0783C000
0F03C000
0F03C000
0F038000
0F078000
ENDCHAR
STARTCHAR dollar
ENCODING 36
SWIDTH 602 0
DWIDTH 29 0
BBX 21 44 5 -7
BITMAP
006000
006000
006000
006000
006000
006000
03FF00
0FFFE0
3FFFE0
7FFFE0
7C60E0
F86000
F06000
F06000
F06000
F06000
F86000
786000
7F6000
3FF000
1FFF00
0FFF80
01FFE0
007FF0
0061F0
0060F8
006078
006078
006078
006078
0060F8
8060F0
F063F0
FFFFE0
FFFFC0
7FFF80
07FC00
006000
006000
006000
006000
006000
006000
006000
ENDCHAR
STARTCHAR percent
ENCODING 37
SWIDTH 602 0
DWIDTH 29 0
BBX 27 34 1 0
BITMAP
07C00000
1FF00000
3FF80000
783C0000
701C0000
E00E0000
E00E0000
E00E0000
E00E0000
E00E0000
701C0000
783C00C0
3FF807C0
1FF01F80
07C0FE00
0003F000
001FC000
007E0000
01F80000
0FC07C00
3F01FF00
7C03FF80
200787C0
000701C0
000E00E0
000E00E0
000E00E0
000E00E0
000E00E0
000701C0
000783C0
0003FF80
0001FF00
00007C00
ENDCHAR
STARTCHAR ampersand
ENCODING 38
SWIDTH 602 0
DWIDTH 29 0
BBX 27 37 1 -1
BITMAP
007F8000
01FFE000
03FFE000
07FFE000
07C06000
0F800000
0F000000
0F000000
0F000000
0F000000
0F800000
07800000
07C00000
03E00000
03E00000
07F00000
0FF80000
1E780000
3C7C03C0
3C3E03C0
781F03C0
781F03C0
F00F83C0
F007C3C0
F007C380
F003E780
F001F780
F000F700
F800FF00
78007E00
7C003C00
7E007E00
3F81FF00
1FFFEF80
0FFFCFC0
07FF87E0
00FE0000
ENDCHAR
STARTCHAR quotesingle
ENCODING 39
SWIDTH 602 0
DWIDTH 29 0
BBX 4 13 12 22
BITMAP
F0
F0
F0
F0
F0
F0
F0
F0
F0
F0
F0
F0
F0
ENDCHAR
STARTCHAR parenleft
ENCODING 40
SWIDTH 602 0
DWIDTH 29 0
BBX 11 43 10 -7
BITMAP
03E0
03C0
0780
0780
0F00
0F00
1E00
1E00
3E00
3C00
3C00
7800
7800
7800
7800
F800
F000
F000
F000
F000
F000
F000
F000
F000
F000
F000
F000
7800
7800
7800
7800
7800
3C00
3C00
3E00
1E00
1E00
0F00
0F00
0780
0780
03C0
03E0
ENDCHAR
STARTCHAR parenright
ENCODING 41
SWIDTH 602 0
DWIDTH 29 0
BBX 11 43 7 -7
BITMAP
F800
7800
3C00
3C00
1E00
1E00
0F00
0F00
0F00
0780
0780
07C0
03C0
03C0
03C0
03C0
01E0
01E0
01E0
01E0
01E0
01E0
01E0
01E0
01E0
01E0
01E0
03C0
03C0
03C0
03C0
07C0
0780
0780
0F00
0F00
0F00
1E00
1E00
3C00
7C00
7800
F800
ENDCHAR
STARTCHAR asterisk
ENCODING 42
SWIDTH 602 0
DWIDTH 29 0
BBX 21 22 4 14
BITMAP
007000
007000
007000
007000
407010
F07078
F870F8
3E73E0
0F7780
03FE00
01FC00
01FC00
03FE00
0F7780
3E73E0
F870F8
F07078
407010
007000
007000
007000
007000
ENDCHAR
STARTCHAR plus
ENCODING 43
SWIDTH 602 0
DWIDTH 29 0
BBX 24 24 2 3
BITMAP
003C00
003C00
003C00
003C00
003C00
003C00
003C00
003C00
003C00
003C00
FFFFFF
FFFFFF
FFFFFF
FFFFFF
003C00
003C00
003C00
003C00
003C00
003C00
003C00
003C00
003C00
003C00
ENDCHAR
STARTCHAR comma
ENCODING 44
SWIDTH 602 0
DWIDTH 29 0
BBX 8 14 10 -7
BITMAP
3F
3F
3F
3F
3F
3F
3E
7E
7C
7C
7C
78
F8
F0
ENDCHAR
STARTCHAR hyphen
ENCODING 45
SWIDTH 602 0
DWIDTH 29 0
BBX 12 4 8 11
BITMAP
FFF0
FFF0
FFF0
FFF0
ENDCHAR
STARTCHAR period
ENCODING 46
SWIDTH 602 0
DWIDTH 29 0
BBX 6 7 11 0
BITMAP
FC
FC
FC
FC
FC
FC
FC
ENDCHAR
STARTCHAR slash
ENCODING 47
SWIDTH 602 0
DWIDTH 29 0
BBX 22 39 2 -4
BITMAP
00003C
000078
000078
0000F0
0000F0
0001E0
0001E0
0001E0
0003C0
0003C0
000780
000780
000F00
000F00
001E00
001E00
003C00
003C00
007800
007800
007800
00F000
00F000
01E000
01E000
03C000
03C000
078000
078000
0F0000
0F0000
1E0000
1E0000
1E0000
3C0000
3C0000
780000
780000
F00000
ENDCHAR
STARTCHAR zero
ENCODING 48
SWIDTH 602 0
DWIDTH 29 0
BBX 23 37 3 -1
BITMAP
00FE00
03FF80
07FFC0
0FFFE0
1F83F0
3E00F8
3E00F8
3C0078
78003C
78003C
78003C
F8003C
F0001E
F0001E
F0001E
F0001E
F0781E
F0FC1E
F0FC1E
F0FC1E
F0FC1E
F0781E
F0001E
F0001E
F0001E
78003C
78003C
78003C
78003C
3C0078
3E00F8
3E00F8
1F83F0
0FFFE0
07FFC0
03FF80
00FE00
ENDCHAR
STARTCHAR one
ENCODING 49
SWIDTH 602 0
DWIDTH 29 0
BBX 19 35 6 0
BITMAP
03F000
3FF000
FFF000
FFF000
FCF000
C0F000
00F000
00F000
00F000
00F000
00F000
00F000
00F000
00F000
00F000
00F000
00F000
00F000
00F000
00F000
00F000
00F000
00F000
00F000
00F000
00F000
00F000
00F000
00F000
00F000
00F000
7FFFE0
7FFFE0
7FFFE0
7FFFE0
ENDCHAR
STARTCHAR two
ENCODING 50
SWIDTH 602 0
DWIDTH 29 0
BBX 23 36 4 0
BITMAP
07FE00
7FFFC0
FFFFE0
FFFFF0
FE01F8
F0007C
80003C
00003E
00001E
00001E
00001E
00001E
00001E
00003E
00003C
00007C
0000F8
0001F8
0003F0
0007E0
000FC0
001F80
003F00
007E00
00FC00
01F800
03F000
07E000
0FC000
1F8000
3E0000
7C0000
FFFFFE
FFFFFE
FFFFFE
FFFFFE
ENDCHAR
STARTCHAR three
ENCODING 51
SWIDTH 602 0
DWIDTH 29 0
BBX 23 37 3 -1
BITMAP
03FE00
1FFF80
7FFFE0
7FFFF0
7C03F8
4000F8
00007C
00003C
00003C
00003C
00003C
00003C
000078
0000F8
0003F0
03FFE0
03FF80
03FFC0
03FFE0
0003F8
0000F8
00007C
00003C
00001E
00001E
00001E
00001E
00001E
00001E
00003E
80007C
E000FC
FC03F8
FFFFF0
FFFFE0
7FFFC0
07FE00
ENDCHAR
STARTCHAR four
ENCODING 52
SWIDTH 602 0
DWIDTH 29 0
BBX 24 35 2 0
BITMAP
0007E0
0007E0
000FE0
000FE0
001DE0
003DE0
0039E0
0079E0
00F1E0
00F1E0
01E1E0
01C1E0
03C1E0
0781E0
0781E0
0F01E0
0F01E0
1E01E0
3C01E0
3C01E0
7801E0
7801E0
F001E0
FFFFFF
FFFFFF
FFFFFF
FFFFFF
0001E0
0001E0
0001E0
0001E0
0001E0
0001E0
0001E0
0001E0
ENDCHAR
STARTCHAR five
ENCODING 53
SWIDTH 602 0
DWIDTH 29 0
BBX 23 36 3 -1
BITMAP
3FFFF8
3FFFF8
3FFFF8
3FFFF8
3C0000
3C0000
3C0000
3C0000
3C0000
3C0000
3C0000
3C0000
3DFE00
3FFF80
3FFFE0
3FFFF0
3C03F8
2000F8
00007C
00003C
00003E
00001E
00001E
00001E
00001E
00001E
00001E
00003E
00003C
80007C
E000F8
FC03F8
FFFFF0
FFFFE0
7FFF80
0FFC00
ENDCHAR
STARTCHAR six
ENCODING 54
SWIDTH 602 0
DWIDTH 29 0
BBX 23 37 3 -1
BITMAP
007FC0
01FFF0
07FFF0
0FFFF0
0FC030
1F0000
3E0000
3C0000
7C0000
780000
780000
780000
F00000
F07F00
F1FFC0
F3FFE0
F7FFF0
FF81F8
FF007C
FE003C
FC003C
FC001E
F8001E
F8001E
F8001E
F8001E
78001E
78001E
7C001E
7C003C
3E003C
3F007C
1F81F8
0FFFF0
07FFE0
03FFC0
00FF00
ENDCHAR
STARTCHAR seven
ENCODING 55
SWIDTH 602 0
DWIDTH 29 0
BBX 23 35 3 0
BITMAP
FFFFFE
FFFFFE
FFFFFE
FFFFFC
00003C
00007C
000078
0000F8
0000F0
0000F0
0001E0
0001E0
0003E0
0003C0
0007C0
000780
000780
000F80
000F00
001F00
001E00
001E00
003E00
003C00
007C00
007800
007800
00F000
00F000
01F000
01E000
03E000
03C000
03C000
07C000
ENDCHAR
STARTCHAR eight
ENCODING 56
SWIDTH 602 0
DWIDTH 29 0
BBX 23 37 3 -1
BITMAP
00FE00
07FFC0
0FFFE0
1FFFF0
3F01F8
3E00F8
7C007C
78003C
78003C
78003C
78003C
78003C
3C0078
3E00F8
1F01F0
0FFFE0
03FF80
07FFC0
1FFFF0
3F01F8
3C0078
78003C
78003C
F0001E
F0001E
F0001E
F0001E
F0001E
F0001E
F8003E
78003C
7C007C
3F01F8
3FFFF8
1FFFF0
07FFC0
01FF00
ENDCHAR
STARTCHAR nine
ENCODING 57
SWIDTH 602 0
DWIDTH 29 0
BBX 23 37 3 -1
BITMAP
01FE00
07FF80
0FFFC0
1FFFE0
3F03F0
7C01F8
7800F8
78007C
F0007C
F0003C
F0003C
F0003E
F0003E
F0003E
F0003E
F0007E
78007E
7800FE
7C01FE
3F03FE
1FFFDE
0FFF9E
07FF1E
01FC1E
00003E
00003C
00003C
00003C
00007C
000078
0000F8
0001F0
1807E0
1FFFE0
1FFFC0
1FFF00
07FC00
ENDCHAR
STARTCHAR colon
ENCODING 58
SWIDTH 602 0
DWIDTH 29 0
BBX 6 25 11 0
BITMAP
FC
FC
FC
FC
FC
FC
FC
00
00
00
00
00
00
00
00
00
00
00
FC
FC
FC
FC
FC
FC
FC
ENDCHAR
STARTCHAR semicolon
ENCODING 59
SWIDTH 602 0
DWIDTH 29 0
BBX 8 32 9 -7
BITMAP
3F
3F
3F
3F
3F
3F
3F
00
00
00
00
00
00
00
00
00
00
00
3F
3F
3F
3F
3F
3F
3E
7E
7C
7C
7C
78
F8
F0
ENDCHAR
STARTCHAR less
ENCODING 60
SWIDTH 602 0
DWIDTH 29 0
BBX 25 23 2 4
BITMAP
00000080
00000780
00003F80
0000FF80
0007FF00
001FF800
00FFE000
07FF0000
1FF80000
FFC00000
FF000000
F8000000
FF000000
FFC00000
1FF80000
07FF0000
00FFE000
001FF800
0007FF00
0000FF80
00003F80
00000780
00000080
ENDCHAR
STARTCHAR equal
ENCODING 61
SWIDTH 602 0
DWIDTH 29 0
BBX 25 14 2 8
BITMAP
FFFFFF80
FFFFFF80
FFFFFF80
FFFFFF80
00000000
00000000
00000000
00000000
00000000
00000000
FFFFFF80
FFFFFF80
FFFFFF80
FFFFFF80
ENDCHAR
STARTCHAR greater
ENCODING 62
SWIDTH 602 0
DWIDTH 29 0
BBX 25 23 2 4
BITMAP
80000000
F0000000
FE000000
FF800000
7FF00000
0FFC0000
03FF8000
007FF000
000FFC00
0001FF80
00007F80
00000F80
00007F80
0001FF80
000FFC00
007FF000
03FF8000
0FFC0000
7FF00000
FF800000
FE000000
F0000000
80000000
ENDCHAR
STARTCHAR question
ENCODING 63
SWIDTH 602 0
DWIDTH 29 0
BBX 19 36 5 0
BITMAP
07F800
1FFE00
7FFF80
FFFF80
FC0FC0
E003E0
8003E0
0001E0
0001E0
0001E0
0003E0
0003C0
0007C0
000F80
001F80
003F00
007E00
00FC00
01F000
01E000
03E000
03C000
03C000
03C000
03C000
03C000
03C000
000000
000000
000000
03C000
03C000
03C000
03C000
03C000
03C000
ENDCHAR
STARTCHAR at
ENCODING 64
SWIDTH 602 0
DWIDTH 29 0
BBX 27 40 1 -7
BITMAP
000FF000
007FFC00
00FFFE00
03F81F00
07E00780
0F8003C0
0F0001C0
1E0001C0
3E0000E0
3C0000E0
7C00F8E0
7803FEE0
7807FFE0
780F87E0
F01F03E0
F01E01E0
F03E01E0
F03C00E0
F03C00E0
F03C00E0
F03C00E0
F03C00E0
F03C00E0
F03E01E0
F01E01E0
781F03E0
780F87E0
7807FFE0
7C03FEE0
3C01F8E0
3E000000
1E000000
1F000000
0F800000
07C00000
03F00000
01FC0200
00FFFF00
003FFF00
0007FC00
ENDCHAR
STARTCHAR A
ENCODING 65
SWIDTH 602 0
DWIDTH 29 0
BBX 27 35 1 0
BITMAP
003F8000
003F8000
003F8000
003F8000
007BC000
007BC000
007BC000
00FBE000
00F1E000
00F1E000
01F1F000
01E0F000
01E0F000
01E0F000
03C07800
03C07800
03C07800
07C07C00
07803C00
07803C00
0F803E00
0F001E00
0FFFFE00
1FFFFF00
1FFFFF00
1FFFFF00
1E000F00
3C000780
3C000780
3C000780
7C0007C0
780003C0
780003C0
F80003E0
F00001E0
ENDCHAR
STARTCHAR B
ENCODING 66
SWIDTH 602 0
DWIDTH 29 0
BBX 23 35 4 0
BITMAP
FFFE00
FFFFC0
FFFFE0
FFFFF0
F001F8
F00078
F0003C
F0003C
F0003C
F0003C
F0003C
F0007C
F00078
F001F8
FFFFF0
FFFFC0
FFFFC0
FFFFF0
F001F8
F0007C
F0003C
F0003C
F0001E
F0001E
F0001E
F0001E
F0001E
F0001E
F0003E
F0007C
F001FC
FFFFF8
FFFFF0
FFFFC0
FFFE00
ENDCHAR
STARTCHAR C
ENCODING 67
SWIDTH 602 0
DWIDTH 29 0
BBX 22 37 3 -1
BITMAP
003FC0
00FFF8
03FFFC
07FFFC
0FE07C
1F800C
1E0004
3E0000
3C0000
780000
780000
780000
780000
F00000
F00000
F00000
F00000
F00000
F00000
F00000
F00000
F00000
F00000
F00000
F80000
780000
780000
780000
3C0000
3E0000
1E0004
1F000C
0FC07C
07FFFC
03FFFC
00FFF8
003FC0
ENDCHAR
STARTCHAR D
ENCODING 68
SWIDTH 602 0
DWIDTH 29 0
BBX 23 35 3 0
BITMAP
FFF000
FFFE00
FFFF80
FFFFC0
F00FE0
F003F0
F000F8
F00078
F0007C
F0003C
F0003C
F0003C
F0001E
F0001E
F0001E
F0001E
F0001E
F0001E
F0001E
F0001E
F0001E
F0001E
F0001E
F0003C
F0003C
F0003C
F0007C
F00078
F000F8
F003F0
F00FE0
FFFFC0
FFFF80
FFFE00
FFF000
ENDCHAR
STARTCHAR E
ENCODING 69
SWIDTH 602 0
DWIDTH 29 0
BBX 21 35 5 0
BITMAP
FFFFF8
FFFFF8
FFFFF8
FFFFF8
F00000
F00000
F00000
F00000
F00000
F00000
F00000
F00000
F00000
F00000
FFFFF0
FFFFF0
FFFFF0
FFFFF0
F00000
F00000
F00000
F00000
F00000
F00000
F00000
F00000
F00000
F00000
F00000
F00000
F00000
FFFFF8
FFFFF8
FFFFF8
FFFFF8
ENDCHAR
STARTCHAR F
ENCODING 70
SWIDTH 602 0
DWIDTH 29 0
BBX 21 35 5 0
BITMAP
FFFFF8
FFFFF8
FFFFF8
FFFFF8
F00000
F00000
F00000
F00000
F00000
F00000
F00000
F00000
F00000
F00000
FFFFF0
FFFFF0
FFFFF0
FFFFF0
F00000
F00000
F00000
F00000
F00000
F00000
F00000
F00000
F00000
F00000
F00000
F00000
F00000
F00000
F00000
F00000
F00000
ENDCHAR
STARTCHAR G
ENCODING 71
SWIDTH 602 0
DWIDTH 29 0
BBX 23 37 3 -1
BITMAP
003FC0
00FFF8
03FFFC
07FFFC
0FC07C
1F000C
1E0004
3C0000
3C0000
780000
780000
780000
F80000
F00000
F00000
F00000
F00000
F00000
F003FE
F003FE
F003FE
F003FE
F0001E
F0001E
F0001E
78001E
78001E
78001E
3C001E
3C001E
1E001E
1F001E
0FC07E
07FFFE
03FFFC
01FFF0
003F80
ENDCHAR
STARTCHAR H
ENCODING 72
SWIDTH 602 0
DWIDTH 29 0
BBX 22 35 3 0
BITMAP
F0003C
F0003C
F0003C
F0003C
F0003C
F0003C
F0003C
F0003C
F0003C
F0003C
F0003C
F0003C
F0003C
F0003C
FFFFFC
FFFFFC
FFFFFC
FFFFFC
F0003C
F0003C
F0003C
F0003C
F0003C
F0003C
F0003C
F0003C
F0003C
F0003C
F0003C
F0003C
F0003C
F0003C
F0003C
F0003C
F0003C
ENDCHAR
STARTCHAR I
ENCODING 73
SWIDTH 602 0
DWIDTH 29 0
BBX 18 35 5 0
BITMAP
FFFFC0
FFFFC0
FFFFC0
FFFFC0
01E000
01E000
01E000
01E000
01E000
01E000
01E000
01E000
01E000
01E000
01E000
01E000
01E000
01E000
01E000
01E000
01E000
01E000
01E000
01E000
01E000
01E000
01E000
01E000
01E000
01E000
01E000
FFFFC0
FFFFC0
FFFFC0
FFFFC0
ENDCHAR
STARTCHAR J
ENCODING 74
SWIDTH 602 0
DWIDTH 29 0
BBX 20 36 3 -1
BITMAP
01FFF0
01FFF0
01FFF0
01FFF0
0000F0
0000F0
0000F0
0000F0
0000F0
0000F0
0000F0
0000F0
0000F0
0000F0
0000F0
0000F0
0000F0
0000F0
0000F0
0000F0
0000F0
0000F0
0000F0
0000F0
0000F0
0000F0
0000F0
0000F0
8001F0
C001E0
F003E0
FC07E0
FFFFC0
FFFF80
7FFF00
07F800
ENDCHAR
STARTCHAR K
ENCODING 75
SWIDTH 602 0
DWIDTH 29 0
BBX 24 35 3 0
BITMAP
F0003F
F0007E
F000FC
F001F8
F001F0
F003E0
F007C0
F00F80
F01F00
F03E00
F07C00
F0F800
F1F000
F3F000
F7E000
FFF000
FFF000
FFF800
FE7C00
FC7C00
F83E00
F01F00
F01F00
F00F80
F007C0
F007C0
F003E0
F001F0
F000F0
F000F8
F0007C
F0003C
F0003E
F0001F
F0000F
ENDCHAR
STARTCHAR L
ENCODING 76
SWIDTH 602 0
DWIDTH 29 0
BBX 22 35 5 0
BITMAP
F00000
F00000
F00000
F00000
F00000
F00000
F00000
F00000
F00000
F00000
F00000
F00000
F00000
F00000
F00000
F00000
F00000
F00000
F00000
F00000
F00000
F00000
F00000
F00000
F00000
F00000
F00000
F00000
F00000
F00000
F00000
FFFFFC
FFFFFC
FFFFFC
FFFFFC
ENDCHAR
STARTCHAR M
ENCODING 77
SWIDTH 602 0
DWIDTH 29 0
BBX 25 35 2 0
BITMAP
FC001F80
FE003F80
FE003F80
FE003F80
FF007F80
F7007780
F7007780
F780F780
F380E780
F380E780
F3C1E780
F1C1C780
F1C3C780
F1E3C780
F0E38780
F0F78780
F0F78780
F0770780
F07F0780
F03F0780
F03E0780
F03E0780
F01C0780
F0000780
F0000780
F0000780
F0000780
F0000780
F0000780
F0000780
F0000780
F0000780
F0000780
F0000780
F0000780
ENDCHAR
STARTCHAR N
ENCODING 78
SWIDTH 602 0
DWIDTH 29 0
BBX 22 35 3 0
BITMAP
FC003C
FC003C
FE003C
FE003C
FE003C
FF003C
FF003C
F7803C
F7803C
F3C03C
F3C03C
F3C03C
F1E03C
F1E03C
F0F03C
F0F03C
F0783C
F0783C
F0783C
F03C3C
F03C3C
F01E3C
F01E3C
F00F3C
F00F3C
F00FBC
F007BC
F007BC
F003FC
F003FC
F001FC
F001FC
F001FC
F000FC
F000FC
ENDCHAR
STARTCHAR O
ENCODING 79
SWIDTH 602 0
DWIDTH 29 0
BBX 23 37 3 -1
BITMAP
00FE00
03FF80
07FFC0
0FFFE0
1F83F0
3E00F8
3C0078
7C007C
78003C
78003C
78003C
F8003C
F0001E
F0001E
F0001E
F0001E
F0001E
F0001E
F0001E
F0001E
F0001E
F0001E
F0001E
F0001E
F0001E
F0003C
78003C
78003C
78003C
7C007C
3C0078
3E00F8
1F83F0
0FFFE0
0FFFC0
03FF80
00FE00
ENDCHAR
STARTCHAR P
ENCODING 80
SWIDTH 602 0
DWIDTH 29 0
BBX 22 35 5 0
BITMAP
FFFE00
FFFF80
FFFFE0
FFFFF0
F003F8
F000F8
F00078
F0007C
F0003C
F0003C
F0003C
F0003C
F0003C
F0007C
F00078
F000F8
F003F8
FFFFF0
FFFFE0
FFFF80
FFFE00
F00000
F00000
F00000
F00000
F00000
F00000
F00000
F00000
F00000
F00000
F00000
F00000
F00000
F00000
ENDCHAR
STARTCHAR Q
ENCODING 81
SWIDTH 602 0
DWIDTH 29 0
BBX 23 42 3 -6
BITMAP
00FE00
03FF80
07FFC0
0FFFE0
1F83F0
3E00F8
3C0078
7C007C
78003C
78003C
78003C
F8003C
F0001E
F0001E
F0001E
F0001E
F0001E
F0001E
F0001E
F0001E
F0001E
F0001E
F0001E
F0001E
F0001E
F0003E
78003C
78003C
78003C
7C007C
3C0078
3E00F8
1F83F0
0FFFF0
07FFE0
03FFC0
00FFC0
0007E0
0003F0
0000F8
000078
000020
ENDCHAR
STARTCHAR R
ENCODING 82
SWIDTH 602 0
DWIDTH 29 0
BBX 26 35 3 0
BITMAP
FFFE0000
FFFF8000
FFFFE000
FFFFF000
F003F800
F000F800
F0007C00
F0007C00
F0003C00
F0003C00
F0003C00
F0003C00
F0003C00
F0007800
F000F800
F003F000
FFFFE000
FFFFC000
FFFF0000
FFFFC000
F007E000
F003E000
F001F000
F000F000
F000F800
F0007800
F0007C00
F0003C00
F0003E00
F0001E00
F0001F00
F0000F00
F0000F80
F0000780
F00007C0
ENDCHAR
STARTCHAR S
ENCODING 83
SWIDTH 602 0
DWIDTH 29 0
BBX 22 37 3 -1
BITMAP
01FE00
07FFE0
0FFFF0
1FFFF0
3F01F0
7C0070
780010
F00000
F00000
F00000
F00000
F00000
F00000
F80000
7C0000
7E0000
3FC000
1FFC00
0FFF80
03FFE0
003FF0
0003F8
0000F8
00007C
00003C
00003C
00003C
00003C
00003C
00007C
800078
E000F8
FC03F8
FFFFF0
FFFFE0
7FFF80
07FC00
ENDCHAR
STARTCHAR T
ENCODING 84
SWIDTH 602 0
DWIDTH 29 0
BBX 26 35 1 0
BITMAP
FFFFFFC0
FFFFFFC0
FFFFFFC0
FFFFFFC0
001E0000
001E0000
001E0000
001E0000
001E0000
001E0000
001E0000
001E0000
001E0000
001E0000
001E0000
001E0000
001E0000
001E0000
001E0000
001E0000
001E0000
001E0000
001E0000
001E0000
001E0000
001E0000
001E0000
001E0000
001E0000
001E0000
001E0000
001E0000
001E0000
001E0000
001E0000
ENDCHAR
STARTCHAR U
ENCODING 85
SWIDTH 602 0
DWIDTH 29 0
BBX 22 36 3 -1
BITMAP
F0003C
F0003C
F0003C
F0003C
F0003C
F0003C
F0003C
F0003C
F0003C
F0003C
F0003C
F0003C
F0003C
F0003C
F0003C
F0003C
F0003C
F0003C
F0003C
F0003C
F0003C
F0003C
F0003C
F0003C
F0003C
F0003C
F0003C
F0003C
F0003C
780078
7C00F8
3F03F0
3FFFF0
1FFFE0
07FF80
01FE00
ENDCHAR
STARTCHAR V
ENCODING 86
SWIDTH 602 0
DWIDTH 29 0
BBX 26 35 1 0
BITMAP
F00003C0
F80007C0
78000780
78000780
78000780
3C000F00
3C000F00
3C000F00
3E001F00
1E001E00
1E001E00
1E003E00
0F003C00
0F003C00
0F003C00
07807C00
07807800
07807800
07C0F800
03C0F000
03C0F000
03C0F000
01E1E000
01E1E000
01E1E000
01F3E000
00F3C000
00F3C000
00F3C000
007F8000
007F8000
007F8000
007F8000
003F0000
003F0000
ENDCHAR
STARTCHAR W
ENCODING 87
SWIDTH 602 0
DWIDTH 29 0
BBX 29 35 0 0
BITMAP
F0000078
F0000078
F0000078
780000F0
780000F0
780000F0
780000F0
780000F0
780000F0
780000F0
3C0F81E0
3C0F81E0
3C1FC1E0
3C1FC1E0
3C1FC1E0
3C1DC1E0
3E1DC3E0
1E3DE3C0
1E3DE3C0
1E38E3C0
1E38E3C0
1E78E3C0
1E78F3C0
0F707780
0F707780
0F707780
0FF07F80
0FE03F80
0FE03F80
0FE03F80
07E03F00
07E03F00
07C01F00
07C01F00
07C01F00
ENDCHAR
STARTCHAR X
ENCODING 88
SWIDTH 602 0
DWIDTH 29 0
BBX 28 35 1 0
BITMAP
3E0003E0
1F0007C0
1F000780
0F800F80
07801F00
07C01F00
03E03E00
03E03C00
01F07C00
00F0F800
00F8F800
007DF000
007DE000
003FE000
001FC000
001F8000
000F8000
001F8000
001FC000
003FE000
007DE000
0079F000
00F8F000
01F0F800
01E07C00
03E03C00
07C03E00
07C01E00
0F801F00
1F000F80
1F000780
3E0007C0
3C0003E0
7C0003E0
F80001F0
ENDCHAR
STARTCHAR Y
ENCODING 89
SWIDTH 602 0
DWIDTH 29 0
BBX 26 35 1 0
BITMAP
F80007C0
78000780
7C000F80
3E001F00
1E001E00
1F003E00
0F003C00
0F807C00
07807800
07C0F800
03E1F000
01E1E000
01F3E000
00F3C000
00FFC000
007F8000
007F8000
003F0000
001E0000
001E0000
001E0000
001E0000
001E0000
001E0000
001E0000
001E0000
001E0000
001E0000
001E0000
001E0000
001E0000
001E0000
001E0000
001E0000
001E0000
ENDCHAR
STARTCHAR Z
ENCODING 90
SWIDTH 602 0
DWIDTH 29 0
BBX 24 35 4 0
BITMAP
7FFFFE
7FFFFE
7FFFFE
7FFFFE
00003C
00007C
0000F8
0000F0
0001F0
0003E0
0003C0
0007C0
000F80
000F80
001F00
003E00
003E00
007C00
00F800
00F800
01F000
03E000
03E000
07C000
0F8000
0F8000
1F0000
1E0000
3E0000
7C0000
780000
FFFFFF
FFFFFF
FFFFFF
FFFFFF
ENDCHAR
STARTCHAR bracketleft
ENCODING 91
SWIDTH 602 0
DWIDTH 29 0
BBX 10 43 11 -7
BITMAP
FFC0
FFC0
FFC0
FFC0
F000
F000
F000
F000
F000
F000
F000
F000
F000
F000
F000
F000
F000
F000
F000
F000
F000
F000
F000
F000
F000
F000
F000
F000
F000
F000
F000
F000
F000
F000
F000
F000
F000
F000
F000
FFC0
FFC0
FFC0
FFC0
ENDCHAR
STARTCHAR backslash
ENCODING 92
SWIDTH 602 0
DWIDTH 29 0
BBX 22 39 2 -4
BITMAP
F00000
780000
780000
3C0000
3C0000
1E0000
1E0000
1E0000
0F0000
0F0000
078000
078000
03C000
03C000
01E000
01E000
00F000
00F000
007800
007800
007800
003C00
003C00
001E00
001E00
000F00
000F00
000780
000780
0003C0
0003C0
0001E0
0001E0
0001E0
0000F0
0000F0
000078
000078
00003C
ENDCHAR
STARTCHAR bracketright
ENCODING 93
SWIDTH 602 0
DWIDTH 29 0
BBX 10 43 8 -7
BITMAP
FFC0
FFC0
FFC0
FFC0
03C0
03C0
03C0
03C0
03C0
03C0
03C0
03C0
03C0
03C0
03C0
03C0
03C0
03C0
03C0
03C0
03C0
03C0
03C0
03C0
03C0
03C0
03C0
03C0
03C0
03C0
03C0
03C0
03C0
03C0
03C0
03C0
03C0
03C0
03C0
FFC0
FFC0
FFC0
FFC0
ENDCHAR
STARTCHAR asciicircum
ENCODING 94
SWIDTH 602 0
DWIDTH 29 0
BBX 26 13 2 22
BITMAP
003F0000
003F0000
007F8000
00FFC000
01F3E000
03E1F000
07C0F800
07807800
0F807C00
1F003E00
3E001F00
7C000F80
F80007C0
ENDCHAR
STARTCHAR underscore
ENCODING 95
SWIDTH 602 0
DWIDTH 29 0
BBX 24 4 0 -11
BITMAP
FFFFFF
FFFFFF
FFFFFF
FFFFFF
ENDCHAR
STARTCHAR grave
ENCODING 96
SWIDTH 602 0
DWIDTH 29 0
BBX 11 9 7 29
BITMAP
F800
7C00
3C00
1E00
0F00
0780
0780
03C0
01E0
ENDCHAR
STARTCHAR a
ENCODING 97
SWIDTH 602 0
DWIDTH 29 0
BBX 22 28 3 -1
BITMAP
01FE00
1FFFC0
3FFFE0
3FFFF0
3E01F8
200078
00007C
00003C
00003C
00003C
01FFFC
0FFFFC
1FFFFC
3FFFFC
7F003C
7C003C
F8003C
F0003C
F0007C
F0007C
F0007C
F800FC
F801FC
7E07FC
7FFFBC
3FFF3C
0FFE3C
03F800
ENDCHAR
STARTCHAR b
ENCODING 98
SWIDTH 602 0
DWIDTH 29 0
BBX 22 37 5 -1
BITMAP
F00000
F00000
F00000
F00000
F00000
F00000
F00000
F00000
F00000
F0FE00
F3FF80
F7FFC0
FFFFE0
FF03F0
FE01F0
FC00F8
F80078
F80078
F8003C
F0003C
F0003C
F0003C
F0003C
F0003C
F0003C
F0003C
F0003C
F0007C
F80078
F80078
FC00F8
FE01F0
FF03F0
FFFFE0
F7FFC0
F3FF80
00FE00
ENDCHAR
STARTCHAR c
ENCODING 99
SWIDTH 602 0
DWIDTH 29 0
BBX 20 28 5 -1
BITMAP
007F00
03FFE0
07FFF0
0FFFF0
1F80F0
3E0030
7C0010
7C0000
780000
F80000
F00000
F00000
F00000
F00000
F00000
F00000
F00000
F00000
F80000
780000
7C0000
7C0010
3E0030
1F80F0
0FFFF0
07FFE0
03FFC0
007F00
ENDCHAR
STARTCHAR d
ENCODING 100
SWIDTH 602 0
DWIDTH 29 0
BBX 22 37 3 -1
BITMAP
00003C
00003C
00003C
00003C
00003C
00003C
00003C
00003C
00003C
01FC3C
07FF3C
0FFFBC
1FFFFC
3F03FC
3E01FC
7C00FC
78007C
78007C
F0007C
F0003C
F0003C
F0003C
F0003C
F0003C
F0003C
F0003C
F0003C
F0007C
78007C
78007C
7C00FC
3E01FC
3F03FC
1FFFFC
0FFFBC
07FF3C
01FC00
ENDCHAR
STARTCHAR e
ENCODING 101
SWIDTH 602 0
DWIDTH 29 0
BBX 23 28 3 -1
BITMAP
007F00
03FFC0
07FFE0
0FFFF0
1F81F8
3E007C
3C003C
78003C
78001E
F0001E
F0001E
FFFFFE
FFFFFE
FFFFFE
FFFFFE
F00000
F00000
F00000
F00000
780000
780000
7C0004
3E001C
1F80FC
0FFFFC
07FFF8
03FFE0
007F80
ENDCHAR
STARTCHAR f
ENCODING 102
SWIDTH 602 0
DWIDTH 29 0
BBX 20 36 5 0
BITMAP
001FF0
007FF0
00FFF0
00FFF0
01F000
01E000
01E000
01E000
01E000
01E000
FFFFF0
FFFFF0
FFFFF0
FFFFF0
01E000
01E000
01E000
01E000
01E000
01E000
01E000
01E000
01E000
01E000
01E000
01E000
01E000
01E000
01E000
01E000
01E000
01E000
01E000
01E000
01E000
01E000
ENDCHAR
STARTCHAR g
ENCODING 103
SWIDTH 602 0
DWIDTH 29 0
BBX 22 37 3 -10
BITMAP
01FC00
07FF3C
0FFFBC
1FFFBC
3F03FC
3E01FC
7C00FC
78007C
78007C
F0003C
F0003C
F0003C
F0003C
F0003C
F0003C
F0003C
F0003C
F0003C
78007C
78007C
7C00FC
3E01FC
3F03FC
1FFFBC
0FFFBC
07FF3C
01FC3C
00003C
00003C
000078
000078
1000F8
1E03F0
1FFFF0
1FFFE0
0FFF80
01FE00
ENDCHAR
STARTCHAR h
ENCODING 104
SWIDTH 602 0
DWIDTH 29 0
BBX 20 36 5 0
BITMAP
F00000
F00000
F00000
F00000
F00000
F00000
F00000
F00000
F00000
F07E00
F1FF80
F3FFC0
F7FFE0
FF07E0
FC01E0
F801F0
F800F0
F000F0
F000F0
F000F0
F000F0
F000F0
F000F0
F000F0
F000F0
F000F0
F000F0
F000F0
F000F0
F000F0
F000F0
F000F0
F000F0
F000F0
F000F0
F000F0
ENDCHAR
STARTCHAR i
ENCODING 105
SWIDTH 602 0
DWIDTH 29 0
BBX 22 36 4 0
BITMAP
007800
007800
007800
007800
007800
000000
000000
000000
000000
000000
3FF800
3FF800
3FF800
3FF800
007800
007800
007800
007800
007800
007800
007800
007800
007800
007800
007800
007800
007800
007800
007800
007800
007800
007800
FFFFFC
FFFFFC
FFFFFC
FFFFFC
ENDCHAR
STARTCHAR j
ENCODING 106
SWIDTH 602 0
DWIDTH 29 0
BBX 14 46 4 -10
BITMAP
003C
003C
003C
003C
003C
0000
0000
0000
0000
0000
1FFC
1FFC
1FFC
1FFC
003C
003C
003C
003C
003C
003C
003C
003C
003C
003C
003C
003C
003C
003C
003C
003C
003C
003C
003C
003C
003C
003C
003C
003C
003C
003C
007C
00F8
FFF8
FFF0
FFE0
FF80
ENDCHAR
STARTCHAR k
ENCODING 107
SWIDTH 602 0
DWIDTH 29 0
BBX 22 36 6 0
BITMAP
F00000
F00000
F00000
F00000
F00000
F00000
F00000
F00000
F00000
F00000
F001F0
F003E0
F007C0
F00F80
F01F00
F07E00
F0FC00
F1F800
F3F000
F7E000
FFE000
FFE000
FFF000
FEF800
FC7C00
F87C00
F03E00
F01F00
F00F80
F00F80
F007C0
F003E0
F001E0
F001F0
F000F8
F0007C
ENDCHAR
STARTCHAR l
ENCODING 108
SWIDTH 602 0
DWIDTH 29 0
BBX 22 36 2 0
BITMAP
FFF800
FFF800
FFF800
FFF800
007800
007800
007800
007800
007800
007800
007800
007800
007800
007800
007800
007800
007800
007800
007800
007800
007800
007800
007800
007800
007800
007800
007800
007800
007800
007800
007C00
003E00
003FFC
001FFC
000FFC
0003FC
ENDCHAR
STARTCHAR m
ENCODING 109
SWIDTH 602 0
DWIDTH 29 0
BBX 24 27 3 0
BITMAP
03E0F8
F7F1FC
FFFBFE
FFFFFE
F87E1E
F87E1F
F03C0F
F03C0F
F03C0F
F03C0F
F03C0F
F03C0F
F03C0F
F03C0F
F03C0F
F03C0F
F03C0F
F03C0F
F03C0F
F03C0F
F03C0F
F03C0F
F03C0F
F03C0F
F03C0F
F03C0F
F03C0F
ENDCHAR
STARTCHAR n
ENCODING 110
SWIDTH 602 0
DWIDTH 29 0
BBX 20 27 5 0
BITMAP
007E00
F1FF80
F3FFC0
F7FFE0
FF07E0
FC01E0
F801F0
F800F0
F000F0
F000F0
F000F0
F000F0
F000F0
F000F0
F000F0
F000F0
F000F0
F000F0
F000F0
F000F0
F000F0
F000F0
F000F0
F000F0
F000F0
F000F0
F000F0
ENDCHAR
STARTCHAR o
ENCODING 111
SWIDTH 602 0
DWIDTH 29 0
BBX 22 28 3 -1
BITMAP
01FE00
07FF80
0FFFC0
1FFFE0
3F03F0
3E01F0
7C00F8
780078
780078
F0003C
F0003C
F0003C
F0003C
F0003C
F0003C
F0003C
F0003C
F0003C
F0007C
780078
780078
7C00F8
3E01F0
3F03F0
1FFFE0
0FFFC0
07FF80
01FE00
ENDCHAR
STARTCHAR p
ENCODING 112
SWIDTH 602 0
DWIDTH 29 0
BBX 22 37 5 -10
BITMAP
00FE00
F3FF80
F7FFC0
FFFFE0
FF03F0
FE01F0
FC00F8
F80078
F80078
F8003C
F0003C
F0003C
F0003C
F0003C
F0003C
F0003C
F0003C
F0003C
F0003C
F80078
F80078
FC00F8
FE01F0
FF03F0
FFFFE0
F7FFC0
F3FF80
F0FE00
F00000
F00000
F00000
F00000
F00000
F00000
F00000
F00000
F00000
ENDCHAR
STARTCHAR q
ENCODING 113
SWIDTH 602 0
DWIDTH 29 0
BBX 22 37 3 -10
BITMAP
01FC00
07FF3C
0FFFBC
1FFFBC
3F03FC
3E01FC
7C00FC
78007C
78007C
F0007C
F0003C
F0003C
F0003C
F0003C
F0003C
F0003C
F0003C
F0003C
F0007C
78007C
78007C
7C00FC
3E01FC
3F03FC
1FFFBC
0FFFBC
07FF3C
01FC3C
00003C
00003C
00003C
00003C
00003C
00003C
00003C
00003C
00003C
ENDCHAR
STARTCHAR r
ENCODING 114
SWIDTH 602 0
DWIDTH 29 0
BBX 19 27 8 0
BITMAP
003F00
F1FFC0
F3FFE0
F7FFE0
F780E0
FE0020
FC0000
FC0000
F80000
F80000
F00000
F00000
F00000
F00000
F00000
F00000
F00000
F00000
F00000
F00000
F00000
F00000
F00000
F00000
F00000
F00000
F00000
ENDCHAR
STARTCHAR s
ENCODING 115
SWIDTH 602 0
DWIDTH 29 0
BBX 19 28 5 -1
BITMAP
03FC00
1FFF80
3FFFC0
7FFFC0
7E03C0
F80040
F00000
F00000
F00000
F00000
F80000
7F0000
7FF800
3FFF00
0FFF80
01FFC0
000FC0
0003E0
0001E0
0001E0
0001E0
0001E0
8003E0
F80FC0
FFFFC0
FFFF80
7FFE00
07F800
ENDCHAR
STARTCHAR t
ENCODING 116
SWIDTH 602 0
DWIDTH 29 0
BBX 21 33 3 0
BITMAP
01E000
01E000
01E000
01E000
01E000
01E000
01E000
FFFFF8
FFFFF8
FFFFF8
FFFFF8
01E000
01E000
01E000
01E000
01E000
01E000
01E000
01E000
01E000
01E000
01E000
01E000
01E000
01E000
01E000
01E000
01F000
00F800
00FFF8
00FFF8
007FF8
001FF8
ENDCHAR
STARTCHAR u
ENCODING 117
SWIDTH 602 0
DWIDTH 29 0
BBX 20 27 5 -1
BITMAP
F000F0
F000F0
F000F0
F000F0
F000F0
F000F0
F000F0
F000F0
F000F0
F000F0
F000F0
F000F0
F000F0
F000F0
F000F0
F000F0
F000F0
F000F0
F001F0
F001F0
F801F0
7803F0
7E0FF0
7FFEF0
3FFCF0
1FF8F0
07E000
ENDCHAR
STARTCHAR v
ENCODING 118
SWIDTH 602 0
DWIDTH 29 0
BBX 24 26 2 0
BITMAP
F0000F
78001E
78001E
78003E
3C003C
3C003C
3E007C
1E0078
1E0078
1F00F8
0F00F0
0F00F0
0F81F0
0781E0
0781E0
03C3E0
03C3C0
03C3C0
01E780
01E780
01FF80
00FF00
00FF00
00FF00
007E00
007E00
ENDCHAR
STARTCHAR w
ENCODING 119
SWIDTH 602 0
DWIDTH 29 0
BBX 29 26 0 0
BITMAP
F0000078
F0000078
780000F0
780000F0
780000F0
780000F0
3C0001E0
3C0001E0
3C0F01E0
3C0F81E0
3E0F83E0
1E0F83C0
1E1DC3C0
1E1DC3C0
1F1DC7C0
0F3DE780
0F38E780
0F38E780
0F38EF80
07F07F00
07F07F00
07F07F00
07E03F00
03E03E00
03E03E00
03E03E00
ENDCHAR
STARTCHAR x
ENCODING 120
SWIDTH 602 0
DWIDTH 29 0
BBX 25 26 2 0
BITMAP
7C001F00
3E003E00
1F007C00
0F80F800
0F80F800
07C1F000
03E3E000
01F7C000
01F7C000
00FF8000
007F0000
003F0000
003E0000
007F0000
007F0000
00FF8000
01F7C000
03E3E000
03E3E000
07C1F000
0F80F800
1F007C00
1F007C00
3E003E00
7C001F00
F8000F80
ENDCHAR
STARTCHAR y
ENCODING 121
SWIDTH 602 0
DWIDTH 29 0
BBX 25 36 2 -10
BITMAP
F8000F80
78000F00
78000F00
7C001F00
3C001E00
3E003E00
1E003C00
1E003C00
1F007C00
0F007800
0F80F800
0780F000
0780F000
03C1F000
03C1E000
03E3E000
01E3C000
01E3C000
00F7C000
00F78000
00FF8000
007F0000
007F0000
003F0000
003E0000
003E0000
003E0000
003C0000
007C0000
00780000
00F80000
01F80000
3FF00000
3FE00000
3FC00000
3F000000
ENDCHAR
STARTCHAR z
ENCODING 122
SWIDTH 602 0
DWIDTH 29 0
BBX 20 26 5 0
BITMAP
7FFFF0
7FFFF0
7FFFF0
7FFFF0
0003E0
0007E0
0007C0
000F80
001F00
003E00
007E00
007C00
00F800
01F000
03E000
07E000
07C000
0F8000
1F0000
3E0000
7E0000
7C0000
FFFFF0
FFFFF0
FFFFF0
FFFFF0
ENDCHAR
STARTCHAR braceleft
ENCODING 123
SWIDTH 602 0
DWIDTH 29 0
BBX 18 44 5 -8
BITMAP
000FC0
007FC0
00FFC0
00FFC0
01F800
01F000
01E000
01E000
01E000
01E000
01E000
01E000
01E000
01E000
01E000
01E000
01E000
03E000
03E000
07C000
FF8000
FF0000
FF0000
FF8000
0FC000
03E000
03E000
01E000
01E000
01E000
01E000
01E000
01E000
01E000
01E000
01E000
01E000
01E000
01F000
01F800
00FFC0
00FFC0
007FC0
001FC0
ENDCHAR
STARTCHAR bar
ENCODING 124
SWIDTH 602 0
DWIDTH 29 0
BBX 4 48 12 -12
BITMAP
F0
F0
F0
F0
F0
F0
F0
F0
F0
F0
F0
F0
F0
F0
F0
F0
F0
F0
F0
F0
F0
F0
F0
F0
F0
F0
F0
F0
F0
F0
F0
F0
F0
F0
F0
F0
F0
F0
F0
F0
F0
F0
F0
F0
F0
F0
F0
F0
ENDCHAR
STARTCHAR braceright
ENCODING 125
SWIDTH 602 0
DWIDTH 29 0
BBX 18 44 5 -8
BITMAP
FC0000
FF8000
FFC000
FFC000
07E000
03E000
01E000
01E000
01E000
01E000
01E000
01E000
01E000
01E000
01E000
01E000
01E000
01E000
01F000
00F800
007FC0
003FC0
003FC0
007FC0
00F800
01F000
01E000
01E000
01E000
01E000
01E000
01E000
01E000
01E000
01E000
01E000
01E000
01E000
03E000
07E000
FFC000
FFC000
FF8000
FC0000
ENDCHAR
STARTCHAR asciitilde
ENCODING 126
SWIDTH 602 0
DWIDTH 29 0
BBX 25 7 2 11
BITMAP
0FE00080
3FF80180
FFFF0780
FFFFFF80
F03FFF80
C007FE00
8001F800
ENDCHAR
STARTCHAR nonbreakingspace
ENCODING 160
SWIDTH 602 0
DWIDTH 29 0
BBX 1 1 0 0
BITMAP
00
ENDCHAR
STARTCHAR exclamdown
ENCODING 161
SWIDTH 602 0
DWIDTH 29 0
BBX 4 35 12 0
BITMAP
F0
F0
F0
F0
F0
F0
00
00
00
00
00
F0
F0
F0
F0
F0
F0
F0
F0
F0
F0
F0
F0
F0
F0
F0
F0
F0
F0
F0
F0
F0
F0
F0
F0
ENDCHAR
STARTCHAR cent
ENCODING 162
SWIDTH 602 0
DWIDTH 29 0
BBX 20 41 5 -7
BITMAP
000C00
000C00
000C00
000C00
000C00
000C00
000C00
007F80
01FFE0
07FFF0
0FFFF0
1FCC70
3F0C10
3E0C00
7C0C00
780C00
780C00
F00C00
F00C00
F00C00
F00C00
F00C00
F00C00
F00C00
F00C00
780C00
780C00
7C0C00
3E0C00
3F0C10
1FCC70
0FFFF0
07FFF0
01FFE0
007F80
000C00
000C00
000C00
000C00
000C00
000C00
ENDCHAR
STARTCHAR sterling
ENCODING 163
SWIDTH 602 0
DWIDTH 29 0
BBX 23 36 3 0
BITMAP
0007F8
003FFE
007FFE
00FFFE
01FC06
01F000
01E000
03E000
03C000
03C000
03C000
03C000
03C000
03C000
03C000
03C000
03C000
03C000
7FFFE0
7FFFE0
7FFFE0
7FFFE0
03C000
03C000
03C000
03C000
03C000
03C000
03C000
03C000
03C000
03C000
FFFFFE
FFFFFE
FFFFFE
FFFFFE
ENDCHAR
STARTCHAR currency
ENCODING 164
SWIDTH 602 0
DWIDTH 29 0
BBX 21 21 5 5
BITMAP
400020
600070
F000F8
79F9F0
3FFFE0
3FFFC0
1F0F80
1C0380
3C03C0
3801C0
3801C0
3801C0
3801C0
3C03C0
1C0380
1F0F80
3FFFC0
3FFFE0
79F9F0
E00078
400020
ENDCHAR
STARTCHAR yen
ENCODING 165
SWIDTH 602 0
DWIDTH 29 0
BBX 26 35 1 0
BITMAP
F80007C0
78000780
7C000F80
3E001F00
1E001E00
1F003E00
0F003C00
0F807C00
07807800
07C0F000
03E1F000
01E1E000
01F3E000
3FF3FF00
3FFFFF00
3FFFFF00
007F8000
003F0000
001E0000
001E0000
3FFFFF00
3FFFFF00
3FFFFF00
001E0000
001E0000
001E0000
001E0000
001E0000
001E0000
001E0000
001E0000
001E0000
001E0000
001E0000
001E0000
ENDCHAR
STARTCHAR brokenbar
ENCODING 166
SWIDTH 602 0
DWIDTH 29 0
BBX 4 42 12 -8
BITMAP
F0
F0
F0
F0
F0
F0
F0
F0
F0
F0
F0
F0
F0
F0
F0
F0
F0
F0
00
00
00
00
00
00
F0
F0
F0
F0
F0
F0
F0
F0
F0
F0
F0
F0
F0
F0
F0
F0
F0
F0
ENDCHAR
STARTCHAR section
ENCODING 167
SWIDTH 602 0
DWIDTH 29 0
BBX 20 41 5 -5
BITMAP
01FF00
07FFC0
0FFFC0
1F03C0
3E0040
3C0000
3C0000
3C0000
3E0000
3F0000
1F8000
0FC000
0FF000
3FFC00
3CFE00
783F80
F01FC0
F007E0
F003E0
F001F0
F800F0
F800F0
7E00F0
3F00F0
1F81E0
0FE3E0
07FFC0
01FF80
007F00
003F80
000F80
0007C0
0007C0
0003C0
0003C0
0003C0
200780
3C0F80
3FFF00
3FFE00
0FF800
ENDCHAR
STARTCHAR dieresis
ENCODING 168
SWIDTH 602 0
DWIDTH 29 0
BBX 14 5 7 31
BITMAP
F87C
F87C
F87C
F87C
F87C
ENDCHAR
STARTCHAR copyright
ENCODING 169
SWIDTH 602 0
DWIDTH 29 0
BBX 29 29 0 3
BITMAP
001FC000
00FFF800
03E03E00
07000F00
0E000380
1C0FE1C0
387FF8E0
30F01860
71C00070
63800030
63800030
C7000018
C7000018
C7000018
C7000018
C7000018
C7000018
C7000018
63800030
63800030
71C00070
30F01860
387FF8E0
1C1FE1C0
0E000380
07800F00
03E03E00
00FFF800
001FC000
ENDCHAR
STARTCHAR ordfeminine
ENCODING 170
SWIDTH 602 0
DWIDTH 29 0
BBX 17 24 6 12
BITMAP
0FF000
3FFC00
7FFE00
703F00
400F00
000780
000780
07FF80
3FFF80
7FFF80
7C0780
F00780
F00780
F00F80
F01F80
F83F80
7FF780
3FE780
0FC780
000000
000000
FFFF80
FFFF80
FFFF80
ENDCHAR
STARTCHAR guillemotleft
ENCODING 171
SWIDTH 602 0
DWIDTH 29 0
BBX 22 22 3 3
BITMAP
002004
00600C
00E01C
01E03C
03E07C
07C0F8
0F81F0
1F03E0
3E07C0
7C0F00
F81E00
F81E00
7C0F00
3E07C0
1F03E0
0F81F0
07C0F8
03E07C
01E03C
00E01C
00600C
002004
ENDCHAR
STARTCHAR logicalnot
ENCODING 172
SWIDTH 602 0
DWIDTH 29 0
BBX 25 12 2 8
BITMAP
FFFFFF80
FFFFFF80
FFFFFF80
FFFFFF80
00000780
00000780
00000780
00000780
00000780
00000780
00000780
00000780
ENDCHAR
STARTCHAR sfthyphen
ENCODING 173
SWIDTH 602 0
DWIDTH 29 0
BBX 12 4 8 11
BITMAP
FFF0
FFF0
FFF0
FFF0
ENDCHAR
STARTCHAR registered
ENCODING 174
SWIDTH 602 0
DWIDTH 29 0
BBX 29 29 0 3
BITMAP
001FC000
00FFF800
03E03E00
07000F00
0E000380
1C0001C0
38FFC0E0
30FFF060
70E07870
60E03830
60E03830
C0E03818
C0E07018
C0FFF018
C0FF8018
C0E1C018
C0E0E018
C0E0F018
60E07030
60E07030
70E03870
30E03860
38E03CE0
1C0001C0
0E000380
07800F00
03E03E00
00FFF800
001FC000
ENDCHAR
STARTCHAR macron
ENCODING 175
SWIDTH 602 0
DWIDTH 29 0
BBX 14 4 7 32
BITMAP
FFFC
FFFC
FFFC
FFFC
ENDCHAR
STARTCHAR degree
ENCODING 176
SWIDTH 602 0
DWIDTH 29 0
BBX 15 15 7 21
BITMAP
07C0
1FF0
3FF8
787C
701C
E01E
E00E
E00E
E00E
E00E
701C
783C
3FF8
1FF0
07C0
ENDCHAR
STARTCHAR plusminus
ENCODING 177
SWIDTH 602 0
DWIDTH 29 0
BBX 24 28 2 0
BITMAP
003C00
003C00
003C00
003C00
003C00
003C00
003C00
003C00
FFFFFF
FFFFFF
FFFFFF
FFFFFF
003C00
003C00
003C00
003C00
003C00
003C00
003C00
003C00
000000
000000
000000
000000
FFFFFF
FFFFFF
FFFFFF
FFFFFF
ENDCHAR
STARTCHAR twosuperior
ENCODING 178
SWIDTH 602 0
DWIDTH 29 0
BBX 13 20 8 16
BITMAP
3F80
FFE0
FFF0
C0F8
0078
0038
0038
0038
0070
00F0
01E0
03C0
0780
0F00
1E00
3C00
7800
FFF8
FFF8
FFF8
ENDCHAR
STARTCHAR threesuperior
ENCODING 179
SWIDTH 602 0
DWIDTH 29 0
BBX 14 20 8 16
BITMAP
1F80
7FE0
7FF0
60F8
0038
0038
0038
00F0
0FE0
0FC0
0FF0
0078
003C
001C
001C
003C
C07C
FFF8
FFF0
3F80
ENDCHAR
STARTCHAR acute
ENCODING 180
SWIDTH 602 0
DWIDTH 29 0
BBX 11 9 11 29
BITMAP
03E0
07C0
0780
0F00
1E00
3C00
3C00
7800
F000
ENDCHAR
STARTCHAR mu
ENCODING 181
SWIDTH 602 0
DWIDTH 29 0
BBX 23 36 5 -10
BITMAP
F000F0
F000F0
F000F0
F000F0
F000F0
F000F0
F000F0
F000F0
F000F0
F000F0
F000F0
F000F0
F000F0
F000F0
F000F0
F000F0
F000F0
F000F0
F000F0
F801F0
F801F0
FC03F0
FE0FFA
FFFF7E
F7FF7E
F7FE7E
F1F83C
F00000
F00000
F00000
F00000
F00000
F00000
F00000
F00000
F00000
ENDCHAR
STARTCHAR paragraph
ENCODING 182
SWIDTH 602 0
DWIDTH 29 0
BBX 22 40 2 -5
BITMAP
00FFFC
07FFFC
0FFFFC
1FFE1C
3FFE1C
7FFE1C
7FFE1C
FFFE1C
FFFE1C
FFFE1C
FFFE1C
FFFE1C
FFFE1C
7FFE1C
7FFE1C
3FFE1C
1FFE1C
0FFE1C
03FE1C
00FE1C
000E1C
000E1C
000E1C
000E1C
000E1C
000E1C
000E1C
000E1C
000E1C
000E1C
000E1C
000E1C
000E1C
000E1C
000E1C
000E1C
000E1C
000E1C
000E1C
000E1C
ENDCHAR
STARTCHAR periodcentered
ENCODING 183
SWIDTH 602 0
DWIDTH 29 0
BBX 6 7 11 13
BITMAP
FC
FC
FC
FC
FC
FC
FC
ENDCHAR
STARTCHAR cedilla
ENCODING 184
SWIDTH 602 0
DWIDTH 29 0
BBX 9 9 10 -9
BITMAP
0E00
0600
0700
0380
0380
8780
FF80
FF00
FE00
ENDCHAR
STARTCHAR onesuperior
ENCODING 185
SWIDTH 602 0
DWIDTH 29 0
BBX 13 20 8 16
BITMAP
3F00
FF00
FF00
E700
0700
0700
0700
0700
0700
0700
0700
0700
0700
0700
0700
0700
0700
FFF8
FFF8
FFF8
ENDCHAR
STARTCHAR ordmasculine
ENCODING 186
SWIDTH 602 0
DWIDTH 29 0
BBX 17 24 6 12
BITMAP
03E000
0FF800
3FFE00
3E3E00
780F00
780F00
F00780
F00780
F00780
F00780
F00780
F00780
F00780
780F00
780F00
3C3E00
3FFE00
1FF800
07E000
000000
000000
7FFF00
7FFF00
7FFF00
ENDCHAR
STARTCHAR guillemotright
ENCODING 187
SWIDTH 602 0
DWIDTH 29 0
BBX 22 22 5 3
BITMAP
801000
C01800
E01C00
F01E00
F81F00
7C0F80
3E07C0
1F03E0
0F81F0
03C0F8
01E07C
01E07C
03C0F8
0F81F0
1F03E0
3E07C0
7C0F80
F81F00
F01E00
E01C00
C01800
801000
ENDCHAR
STARTCHAR onequarter
ENCODING 188
SWIDTH 602 0
DWIDTH 29 0
BBX 25 46 1 -6
BITMAP
1F800000
7F800000
7F800000
73800000
03800000
03800000
03800000
03800000
03800000
03800000
03800000
03800000
03800000
03800000
03800000
03800000
03800000
7FFC0000
7FFC0000
7FFC0000
00000300
00003F80
0003FF80
003FFE00
03FFE000
3FFE0000
FFE07800
FE00F800
E000F800
0001F800
0003B800
00033800
00073800
000E3800
000E3800
001C3800
00183800
00383800
00703800
007FFF00
007FFF00
007FFF00
00003800
00003800
00003800
00003800
ENDCHAR
STARTCHAR onehalf
ENCODING 189
SWIDTH 602 0
DWIDTH 29 0
BBX 25 46 1 -6
BITMAP
1F800000
7F800000
7F800000
73800000
03800000
03800000
03800000
03800000
03800000
03800000
03800000
03800000
03800000
03800000
03800000
03800000
03800000
7FFC0000
7FFC0000
7FFC0000
00000300
00003F80
0003FF80
003FFE00
03FFE000
3FFE0000
FFE3F800
FE0FFE00
E00FFF00
000C0F80
00000780
00000380
00000380
00000380
00000700
00000F00
00001E00
00003C00
00007800
0000F000
0001E000
0003C000
00078000
000FFF80
000FFF80
000FFF80
ENDCHAR
STARTCHAR threequarters
ENCODING 190
SWIDTH 602 0
DWIDTH 29 0
BBX 25 46 1 -6
BITMAP
07E00000
1FF80000
1FFC0000
183E0000
000E0000
000E0000
000E0000
003C0000
03F80000
03F00000
03FC0000
001E0000
000F0000
00070000
00070000
000F0000
301F0000
3FFE0000
3FFC0000
0FE00000
00000300
00003F80
0003FF80
003FFE00
03FFE000
3FFE0000
FFE07800
FE00F800
E000F800
0001F800
0003B800
00033800
00073800
000E3800
000E3800
001C3800
00183800
00383800
00703800
007FFF00
007FFF00
007FFF00
00003800
00003800
00003800
00003800
ENDCHAR
STARTCHAR questiondown
ENCODING 191
SWIDTH 602 0
DWIDTH 29 0
BBX 19 36 4 -1
BITMAP
007800
007800
007800
007800
007800
007800
000000
000000
000000
007800
007800
007800
007800
007800
007800
00F800
00F000
01F000
07E000
0FC000
1F8000
3F0000
3E0000
7C0000
780000
F80000
F00000
F00000
F00000
F00020
F800E0
7E07E0
7FFFE0
3FFFC0
0FFF00
03FC00
ENDCHAR
STARTCHAR Agrave
ENCODING 192
SWIDTH 602 0
DWIDTH 29 0
BBX 27 45 1 0
BITMAP
00F80000
007C0000
003C0000
001E0000
000F0000
00078000
00000000
00000000
00000000
00000000
003F8000
003F8000
003F8000
003F8000
007BC000
007BC000
007BC000
00FBE000
00F1E000
00F1E000
01F1F000
01E0F000
01E0F000
01E0F000
03C07800
03C07800
03C07800
07C07C00
07803C00
07803C00
0F803E00
0F001E00
0FFFFE00
1FFFFF00
1FFFFF00
1FFFFF00
1E000F00
3C000780
3C000780
3C000780
7C0007C0
780003C0
780003C0
F80003E0
F00001E0
ENDCHAR
STARTCHAR Aacute
ENCODING 193
SWIDTH 602 0
DWIDTH 29 0
BBX 27 45 1 0
BITMAP
0003E000
0007C000
00078000
000F0000
001E0000
003C0000
00000000
00000000
00000000
00000000
003F8000
003F8000
003F8000
003F8000
007BC000
007BC000
007BC000
00FBE000
00F1E000
00F1E000
01F1F000
01E0F000
01E0F000
01E0F000
03C07800
03C07800
03C07800
07C07C00
07803C00
07803C00
0F803E00
0F001E00
0FFFFE00
1FFFFF00
1FFFFF00
1FFFFF00
1E000F00
3C000780
3C000780
3C000780
7C0007C0
780003C0
780003C0
F80003E0
F00001E0
ENDCHAR
STARTCHAR Acircumflex
ENCODING 194
SWIDTH 602 0
DWIDTH 29 0
BBX 27 45 1 0
BITMAP
003F0000
003F0000
007F8000
00F3C000
01E1E000
03C0F000
00000000
00000000
00000000
00000000
003F8000
003F8000
003F8000
003F8000
007BC000
007BC000
007BC000
00FBE000
00F1E000
00F1E000
01F1F000
01E0F000
01E0F000
01E0F000
03C07800
03C07800
03C07800
07C07C00
07803C00
07803C00
0F803E00
0F001E00
0FFFFE00
1FFFFF00
1FFFFF00
1FFFFF00
1E000F00
3C000780
3C000780
3C000780
7C0007C0
780003C0
780003C0
F80003E0
F00001E0
ENDCHAR
STARTCHAR Atilde
ENCODING 195
SWIDTH 602 0
DWIDTH 29 0
BBX 27 44 1 0
BITMAP
00F83800
01FE3800
03FFF800
038FF000
0383E000
00000000
00000000
00000000
00000000
003F8000
003F8000
003F8000
003F8000
007BC000
007BC000
007BC000
00FBE000
00F1E000
00F1E000
01F1F000
01E0F000
01E0F000
01E0F000
03C07800
03C07800
03C07800
07C07C00
07803C00
07803C00
0F803E00
0F001E00
0FFFFE00
1FFFFF00
1FFFFF00
1FFFFF00
1E000F00
3C000780
3C000780
3C000780
7C0007C0
780003C0
780003C0
F80003E0
F00001E0
ENDCHAR
STARTCHAR Adieresis
ENCODING 196
SWIDTH 602 0
DWIDTH 29 0
BBX 27 44 1 0
BITMAP
03E1F000
03E1F000
03E1F000
03E1F000
03E1F000
00000000
00000000
00000000
00000000
003F8000
003F8000
003F8000
003F8000
007BC000
007BC000
007BC000
00FBE000
00F1E000
00F1E000
01F1F000
01E0F000
01E0F000
01E0F000
03C07800
03C07800
03C07800
07C07C00
07803C00
07803C00
0F803E00
0F001E00
0FFFFE00
1FFFFF00
1FFFFF00
1FFFFF00
1E000F00
3C000780
3C000780
3C000780
7C0007C0
780003C0
780003C0
F80003E0
F00001E0
ENDCHAR
STARTCHAR Aring
ENCODING 197
SWIDTH 602 0
DWIDTH 29 0
BBX 27 45 1 0
BITMAP
001F0000
007FC000
00FFE000
00F1E000
01E0F000
01C07000
01C07000
01C07000
01E0F000
00F1E000
00FFE000
007FC000
003F8000
007FC000
007BC000
007BC000
007BC000
00F1E000
00F1E000
00F1E000
01F1F000
01E0F000
01E0F000
03E0F800
03C07800
03C07800
03C07800
07803C00
07803C00
07803C00
0F803E00
0F001E00
0FFFFE00
1FFFFF00
1FFFFF00
1FFFFF00
1E000F00
3C000780
3C000780
3C000780
7C0007C0
780003C0
780003C0
F80003E0
F00001E0
ENDCHAR
STARTCHAR AE
ENCODING 198
SWIDTH 602 0
DWIDTH 29 0
BBX 28 35 0 0
BITMAP
003FFFF0
007FFFF0
007FFFF0
007FFFF0
00F9E000
00F1E000
00F1E000
00F1E000
01E1E000
01E1E000
01E1E000
03E1E000
03C1E000
03C1E000
03C1FFE0
07C1FFE0
0781FFE0
0781FFE0
0781E000
0F01E000
0F01E000
0F01E000
1FFFE000
1FFFE000
1FFFE000
1FFFE000
3E01E000
3C01E000
3C01E000
3C01E000
7801E000
7801FFF0
7801FFF0
F801FFF0
F001FFF0
ENDCHAR
STARTCHAR Ccedilla
ENCODING 199
SWIDTH 602 0
DWIDTH 29 0
BBX 22 45 3 -9
BITMAP
003FC0
00FFF8
03FFFC
07FFFC
0FE07C
1F800C
1E0004
3E0000
3C0000
780000
780000
780000
780000
F00000
F00000
F00000
F00000
F00000
F00000
F00000
F00000
F00000
F00000
F00000
F80000
780000
780000
780000
3C0000
3E0000
1E0004
1F000C
0FC07C
07FFFC
03FFFC
00FFF8
003FC0
000300
000380
0001C0
0001C0
0043C0
007FC0
007F80
007F00
ENDCHAR
STARTCHAR Egrave
ENCODING 200
SWIDTH 602 0
DWIDTH 29 0
BBX 21 45 5 0
BITMAP
0F8000
07C000
03C000
01E000
00F000
007800
000000
000000
000000
000000
FFFFF8
FFFFF8
FFFFF8
FFFFF8
F00000
F00000
F00000
F00000
F00000
F00000
F00000
F00000
F00000
F00000
FFFFF0
FFFFF0
FFFFF0
FFFFF0
F00000
F00000
F00000
F00000
F00000
F00000
F00000
F00000
F00000
F00000
F00000
F00000
F00000
FFFFF8
FFFFF8
FFFFF8
FFFFF8
ENDCHAR
STARTCHAR Eacute
ENCODING 201
SWIDTH 602 0
DWIDTH 29 0
BBX 21 45 5 0
BITMAP
003E00
007C00
007800
00F000
01E000
03C000
000000
000000
000000
000000
FFFFF8
FFFFF8
FFFFF8
FFFFF8
F00000
F00000
F00000
F00000
F00000
F00000
F00000
F00000
F00000
F00000
FFFFF0
FFFFF0
FFFFF0
FFFFF0
F00000
F00000
F00000
F00000
F00000
F00000
F00000
F00000
F00000
F00000
F00000
F00000
F00000
FFFFF8
FFFFF8
FFFFF8
FFFFF8
ENDCHAR
STARTCHAR Ecircumflex
ENCODING 202
SWIDTH 602 0
DWIDTH 29 0
BBX 21 45 5 0
BITMAP
03F000
03F000
07F800
0F3C00
1E1E00
3C0F00
000000
000000
000000
000000
FFFFF8
FFFFF8
FFFFF8
FFFFF8
F00000
F00000
F00000
F00000
F00000
F00000
F00000
F00000
F00000
F00000
FFFFF0
FFFFF0
FFFFF0
FFFFF0
F00000
F00000
F00000
F00000
F00000
F00000
F00000
F00000
F00000
F00000
F00000
F00000
F00000
FFFFF8
FFFFF8
FFFFF8
FFFFF8
ENDCHAR
STARTCHAR Edieresis
ENCODING 203
SWIDTH 602 0
DWIDTH 29 0
BBX 21 44 5 0
BITMAP
3E1F00
3E1F00
3E1F00
3E1F00
3E1F00
000000
000000
000000
000000
FFFFF8
FFFFF8
FFFFF8
FFFFF8
F00000
F00000
F00000
F00000
F00000
F00000
F00000
F00000
F00000
F00000
FFFFF0
FFFFF0
FFFFF0
FFFFF0
F00000
F00000
F00000
F00000
F00000
F00000
F00000
F00000
F00000
F00000
F00000
F00000
F00000
FFFFF8
FFFFF8
FFFFF8
FFFFF8
ENDCHAR
STARTCHAR Igrave
ENCODING 204
SWIDTH 602 0
DWIDTH 29 0
BBX 18 45 5 0
BITMAP
0F8000
07C000
03C000
01E000
00F000
007800
000000
000000
000000
000000
FFFFC0
FFFFC0
FFFFC0
FFFFC0
01E000
01E000
01E000
01E000
01E000
01E000
01E000
01E000
01E000
01E000
01E000
01E000
01E000
01E000
01E000
01E000
01E000
01E000
01E000
01E000
01E000
01E000
01E000
01E000
01E000
01E000
01E000
FFFFC0
FFFFC0
FFFFC0
FFFFC0
ENDCHAR
STARTCHAR Iacute
ENCODING 205
SWIDTH 602 0
DWIDTH 29 0
BBX 18 45 5 0
BITMAP
003E00
007C00
007800
00F000
01E000
03C000
000000
000000
000000
000000
FFFFC0
FFFFC0
FFFFC0
FFFFC0
01E000
01E000
01E000
01E000
01E000
01E000
01E000
01E000
01E000
01E000
01E000
01E000
01E000
01E000
01E000
01E000
01E000
01E000
01E000
01E000
01E000
01E000
01E000
01E000
01E000
01E000
01E000
FFFFC0
FFFFC0
FFFFC0
FFFFC0
ENDCHAR
STARTCHAR Icircumflex
ENCODING 206
SWIDTH 602 0
DWIDTH 29 0
BBX 18 45 5 0
BITMAP
03F000
03F000
07F800
0F3C00
1E1E00
3C0F00
000000
000000
000000
000000
FFFFC0
FFFFC0
FFFFC0
FFFFC0
01E000
01E000
01E000
01E000
01E000
01E000
01E000
01E000
01E000
01E000
01E000
01E000
01E000
01E000
01E000
01E000
01E000
01E000
01E000
01E000
01E000
01E000
01E000
01E000
01E000
01E000
01E000
FFFFC0
FFFFC0
FFFFC0
FFFFC0
ENDCHAR
STARTCHAR Idieresis
ENCODING 207
SWIDTH 602 0
DWIDTH 29 0
BBX 18 44 5 0
BITMAP
3E1F00
3E1F00
3E1F00
3E1F00
3E1F00
000000
000000
000000
000000
FFFFC0
FFFFC0
FFFFC0
FFFFC0
01E000
01E000
01E000
01E000
01E000
01E000
01E000
01E000
01E000
01E000
01E000
01E000
01E000
01E000
01E000
01E000
01E000
01E000
01E000
01E000
01E000
01E000
01E000
01E000
01E000
01E000
01E000
FFFFC0
FFFFC0
FFFFC0
FFFFC0
ENDCHAR
STARTCHAR Eth
ENCODING 208
SWIDTH 602 0
DWIDTH 29 0
BBX 26 35 0 0
BITMAP
1FFE0000
1FFFC000
1FFFF000
1FFFF800
1E03FC00
1E007E00
1E001F00
1E000F00
1E000F80
1E000780
1E000780
1E000780
1E0003C0
1E0003C0
1E0003C0
FFF803C0
FFF803C0
FFF803C0
FFF803C0
1E0003C0
1E0003C0
1E0003C0
1E0003C0
1E000780
1E000780
1E000780
1E000F80
1E000F00
1E001F00
1E007E00
1E03FC00
1FFFF800
1FFFF000
1FFFC000
1FFC0000
ENDCHAR
STARTCHAR Ntilde
ENCODING 209
SWIDTH 602 0
DWIDTH 29 0
BBX 22 44 3 0
BITMAP
03E0E0
07F8E0
0FFFE0
0E3FC0
0E0F80
000000
000000
000000
000000
FC003C
FC003C
FE003C
FE003C
FE003C
FF003C
FF003C
F7803C
F7803C
F3C03C
F3C03C
F3C03C
F1E03C
F1E03C
F0F03C
F0F03C
F0783C
F0783C
F0783C
F03C3C
F03C3C
F01E3C
F01E3C
F00F3C
F00F3C
F00FBC
F007BC
F007BC
F003FC
F003FC
F001FC
F001FC
F001FC
F000FC
F000FC
ENDCHAR
STARTCHAR Ograve
ENCODING 210
SWIDTH 602 0
DWIDTH 29 0
BBX 23 46 3 -1
BITMAP
03E000
01F000
00F000
007800
003C00
001E00
000000
000000
000000
00FE00
03FF80
07FFC0
0FFFE0
1F83F0
3E00F8
3C0078
7C007C
78003C
78003C
78003C
F8003C
F0001E
F0001E
F0001E
F0001E
F0001E
F0001E
F0001E
F0001E
F0001E
F0001E
F0001E
F0001E
F0001E
F0003C
78003C
78003C
78003C
7C007C
3C0078
3E00F8
1F83F0
0FFFE0
0FFFC0
03FF80
00FE00
ENDCHAR
STARTCHAR Oacute
ENCODING 211
SWIDTH 602 0
DWIDTH 29 0
BBX 23 46 3 -1
BITMAP
000F80
001F00
001E00
003C00
007800
00F000
000000
000000
000000
00FE00
03FF80
07FFC0
0FFFE0
1F83F0
3E00F8
3C0078
7C007C
78003C
78003C
78003C
F8003C
F0001E
F0001E
F0001E
F0001E
F0001E
F0001E
F0001E
F0001E
F0001E
F0001E
F0001E
F0001E
F0001E
F0003C
78003C
78003C
78003C
7C007C
3C0078
3E00F8
1F83F0
0FFFE0
0FFFC0
03FF80
00FE00
ENDCHAR
STARTCHAR Ocircumflex
ENCODING 212
SWIDTH 602 0
DWIDTH 29 0
BBX 23 46 3 -1
BITMAP
00FC00
00FC00
01FE00
03CF00
078780
0F03C0
000000
000000
000000
00FE00
03FF80
07FFC0
0FFFE0
1F83F0
3E00F8
3C0078
7C007C
78003C
78003C
78003C
F8003C
F0001E
F0001E
F0001E
F0001E
F0001E
F0001E
F0001E
F0001E
F0001E
F0001E
F0001E
F0001E
F0001E
F0003C
78003C
78003C
78003C
7C007C
3C0078
3E00F8
1F83F0
0FFFE0
0FFFC0
03FF80
00FE00
ENDCHAR
STARTCHAR Otilde
ENCODING 213
SWIDTH 602 0
DWIDTH 29 0
BBX 23 45 3 -1
BITMAP
03E0E0
07F8E0
0FFFE0
0E3FC0
0E0F80
000000
000000
000000
00FE00
03FF80
07FFC0
0FFFE0
1F83F0
3E00F8
3C0078
7C007C
78003C
78003C
78003C
F8003C
F0001E
F0001E
F0001E
F0001E
F0001E
F0001E
F0001E
F0001E
F0001E
F0001E
F0001E
F0001E
F0001E
F0003C
78003C
78003C
78003C
7C007C
3C0078
3E00F8
1F83F0
0FFFE0
0FFFC0
03FF80
00FE00
ENDCHAR
STARTCHAR Odieresis
ENCODING 214
SWIDTH 602 0
DWIDTH 29 0
BBX 23 45 3 -1
BITMAP
0F87C0
0F87C0
0F87C0
0F87C0
0F87C0
000000
000000
000000
00FE00
03FF80
07FFC0
0FFFE0
1F83F0
3E00F8
3C0078
7C007C
78003C
78003C
78003C
F8003C
F0001E
F0001E
F0001E
F0001E
F0001E
F0001E
F0001E
F0001E
F0001E
F0001E
F0001E
F0001E
F0001E
F0003C
78003C
78003C
78003C
7C007C
3C0078
3E00F8
1F83F0
0FFFE0
0FFFC0
03FF80
00FE00
ENDCHAR
STARTCHAR multiply
ENCODING 215
SWIDTH 602 0
DWIDTH 29 0
BBX 22 22 4 4
BITMAP
200010
700038
F8007C
7C00F8
3E01F0
1F03E0
0F87C0
07CF80
03FF00
01FE00
00FC00
00FC00
01FE00
03FF00
07CF80
0F87C0
1F03E0
3E01F0
7C00F8
F8007C
700038
200010
ENDCHAR
STARTCHAR Oslash
ENCODING 216
SWIDTH 602 0
DWIDTH 29 0
BBX 27 39 1 -2
BITMAP
00000080
003F80E0
00FFF1E0
01FFF9C0
03FFFF80
07E0FF80
0F803F00
0F001E00
0F001F00
1E001F00
1E003F00
1E007F00
3E007F80
3C00F780
3C01E780
3C03C780
3C03C780
3C078780
3C0F0780
3C1E0780
3C3C0780
3C3C0780
3C780780
3CF00780
3DE00780
3DE00780
3FC00F00
3F800F00
1F000F00
1F000F00
1E001E00
1F001E00
3F803E00
3FE0FC00
77FFF800
F3FFF000
E1FFE000
E07F8000
40000000
ENDCHAR
STARTCHAR Ugrave
ENCODING 217
SWIDTH 602 0
DWIDTH 29 0
BBX 22 46 3 -1
BITMAP
03E000
01F000
00F000
007800
003C00
001E00
000000
000000
000000
000000
F0003C
F0003C
F0003C
F0003C
F0003C
F0003C
F0003C
F0003C
F0003C
F0003C
F0003C
F0003C
F0003C
F0003C
F0003C
F0003C
F0003C
F0003C
F0003C
F0003C
F0003C
F0003C
F0003C
F0003C
F0003C
F0003C
F0003C
F0003C
F0003C
780078
7C00F8
3F03F0
3FFFF0
1FFFE0
07FF80
01FE00
ENDCHAR
STARTCHAR Uacute
ENCODING 218
SWIDTH 602 0
DWIDTH 29 0
BBX 22 46 3 -1
BITMAP
000F80
001F00
001E00
003C00
007800
00F000
000000
000000
000000
000000
F0003C
F0003C
F0003C
F0003C
F0003C
F0003C
F0003C
F0003C
F0003C
F0003C
F0003C
F0003C
F0003C
F0003C
F0003C
F0003C
F0003C
F0003C
F0003C
F0003C
F0003C
F0003C
F0003C
F0003C
F0003C
F0003C
F0003C
F0003C
F0003C
780078
7C00F8
3F03F0
3FFFF0
1FFFE0
07FF80
01FE00
ENDCHAR
STARTCHAR Ucircumflex
ENCODING 219
SWIDTH 602 0
DWIDTH 29 0
BBX 22 46 3 -1
BITMAP
00FC00
00FC00
01FE00
03CF00
078780
0F03C0
000000
000000
000000
000000
F0003C
F0003C
F0003C
F0003C
F0003C
F0003C
F0003C
F0003C
F0003C
F0003C
F0003C
F0003C
F0003C
F0003C
F0003C
F0003C
F0003C
F0003C
F0003C
F0003C
F0003C
F0003C
F0003C
F0003C
F0003C
F0003C
F0003C
F0003C
F0003C
780078
7C00F8
3F03F0
3FFFF0
1FFFE0
07FF80
01FE00
ENDCHAR
STARTCHAR Udieresis
ENCODING 220
SWIDTH 602 0
DWIDTH 29 0
BBX 22 45 3 -1
BITMAP
0F87C0
0F87C0
0F87C0
0F87C0
0F87C0
000000
000000
000000
000000
F0003C
F0003C
F0003C
F0003C
F0003C
F0003C
F0003C
F0003C
F0003C
F0003C
F0003C
F0003C
F0003C
F0003C
F0003C
F0003C
F0003C
F0003C
F0003C
F0003C
F0003C
F0003C
F0003C
F0003C
F0003C
F0003C
F0003C
F0003C
F0003C
780078
7C00F8
3F03F0
3FFFF0
1FFFE0
07FF80
01FE00
ENDCHAR
STARTCHAR Yacute
ENCODING 221
SWIDTH 602 0
DWIDTH 29 0
BBX 26 45 1 0
BITMAP
0003E000
0007C000
00078000
000F0000
001E0000
003C0000
00000000
00000000
00000000
00000000
F80007C0
78000780
7C000F80
3E001F00
1E001E00
1F003E00
0F003C00
0F807C00
07807800
07C0F800
03E1F000
01E1E000
01F3E000
00F3C000
00FFC000
007F8000
007F8000
003F0000
001E0000
001E0000
001E0000
001E0000
001E0000
001E0000
001E0000
001E0000
001E0000
001E0000
001E0000
001E0000
001E0000
001E0000
001E0000
001E0000
001E0000
ENDCHAR
STARTCHAR Thorn
ENCODING 222
SWIDTH 602 0
DWIDTH 29 0
BBX 22 35 5 0
BITMAP
F00000
F00000
F00000
F00000
F00000
F00000
FFFE00
FFFFC0
FFFFE0
FFFFF0
F003F8
F000F8
F0007C
F0003C
F0003C
F0003C
F0003C
F0003C
F0003C
F0007C
F000F8
F003F8
FFFFF0
FFFFE0
FFFFC0
FFFE00
F00000
F00000
F00000
F00000
F00000
F00000
F00000
F00000
F00000
ENDCHAR
STARTCHAR germandbls
ENCODING 223
SWIDTH 602 0
DWIDTH 29 0
BBX 22 37 5 -1
BITMAP
03F800
0FFE00
3FFF00
3FFF80
7E0FC0
7803C0
F803E0
F001E0
F001E0
F007E0
F01FE0
F07E00
F0F800
F0F000
F1E000
F1E000
F1E000
F1E000
F1F000
F0FC00
F0FF00
F07F80
F03FE0
F00FF0
F003F8
F000F8
F0007C
F0003C
F0003C
F0003C
F0003C
F0007C
F301F8
F3FFF8
F3FFF0
F3FFE0
00FF00
ENDCHAR
STARTCHAR agrave
ENCODING 224
SWIDTH 602 0
DWIDTH 29 0
BBX 22 39 3 -1
BITMAP
0F8000
07C000
03C000
01E000
00F000
007800
007800
003C00
001E00
000000
000000
01FE00
1FFFC0
3FFFE0
3FFFF0
3E01F8
200078
00007C
00003C
00003C
00003C
01FFFC
0FFFFC
1FFFFC
3FFFFC
7F003C
7C003C
F8003C
F0003C
F0007C
F0007C
F0007C
F800FC
F801FC
7E07FC
7FFFBC
3FFF3C
0FFE3C
03F800
ENDCHAR
STARTCHAR aacute
ENCODING 225
SWIDTH 602 0
DWIDTH 29 0
BBX 22 39 3 -1
BITMAP
0003E0
0007C0
000780
000F00
001E00
003C00
003C00
007800
00F000
000000
000000
01FE00
1FFFC0
3FFFE0
3FFFF0
3E01F8
200078
00007C
00003C
00003C
00003C
01FFFC
0FFFFC
1FFFFC
3FFFFC
7F003C
7C003C
F8003C
F0003C
F0007C
F0007C
F0007C
F800FC
F801FC
7E07FC
7FFFBC
3FFF3C
0FFE3C
03F800
ENDCHAR
STARTCHAR acircumflex
ENCODING 226
SWIDTH 602 0
DWIDTH 29 0
BBX 22 39 3 -1
BITMAP
007C00
007C00
00FE00
00EE00
01EF00
03C780
038380
0701C0
0F01E0
000000
000000
01FE00
1FFFC0
3FFFE0
3FFFF0
3E01F8
200078
00007C
00003C
00003C
00003C
01FFFC
0FFFFC
1FFFFC
3FFFFC
7F003C
7C003C
F8003C
F0003C
F0007C
F0007C
F0007C
F800FC
F801FC
7E07FC
7FFFBC
3FFF3C
0FFE3C
03F800
ENDCHAR
STARTCHAR atilde
ENCODING 227
SWIDTH 602 0
DWIDTH 29 0
BBX 22 38 3 -1
BITMAP
03C0E0
07F0E0
07F8E0
0F39E0
0E3FC0
0E1FC0
0E0780
000000
000000
000000
01FE00
1FFFC0
3FFFE0
3FFFF0
3E01F8
200078
00007C
00003C
00003C
00003C
01FFFC
0FFFFC
1FFFFC
3FFFFC
7F003C
7C003C
F8003C
F0003C
F0007C
F0007C
F0007C
F800FC
F801FC
7E07FC
7FFFBC
3FFF3C
0FFE3C
03F800
ENDCHAR
STARTCHAR adieresis
ENCODING 228
SWIDTH 602 0
DWIDTH 29 0
BBX 22 37 3 -1
BITMAP
0F87C0
0F87C0
0F87C0
0F87C0
0F87C0
000000
000000
000000
000000
01FE00
1FFFC0
3FFFE0
3FFFF0
3E01F8
200078
00007C
00003C
00003C
00003C
01FFFC
0FFFFC
1FFFFC
3FFFFC
7F003C
7C003C
F8003C
F0003C
F0007C
F0007C
F0007C
F800FC
F801FC
7E07FC
7FFFBC
3FFF3C
0FFE3C
03F800
ENDCHAR
STARTCHAR aring
ENCODING 229
SWIDTH 602 0
DWIDTH 29 0
BBX 22 43 3 -1
BITMAP
007C00
01FF00
03FF80
03C780
0783C0
0701C0
0701C0
0701C0
0783C0
03C780
03FF80
01FF00
007C00
000000
000000
01FE00
1FFFC0
3FFFE0
3FFFF0
3E01F8
200078
00007C
00003C
00003C
00003C
01FFFC
0FFFFC
1FFFFC
3FFFFC
7F003C
7C003C
F8003C
F0003C
F0007C
F0007C
F0007C
F800FC
F801FC
7E07FC
7FFFBC
3FFF3C
0FFE3C
03F800
ENDCHAR
STARTCHAR ae
ENCODING 230
SWIDTH 602 0
DWIDTH 29 0
BBX 27 28 1 -1
BITMAP
07E07E00
1FF9FF00
3FFBFF80
3FFFFFC0
383FC7C0
201F83C0
000F01E0
000F01E0
000F01E0
000F01E0
000F01E0
03FFFFE0
1FFFFFE0
3FFFFFE0
7FFFFFE0
7E0F0000
F80F0000
F00F0000
F00F0000
F00F0000
F00F0000
F00F8000
F81F8040
7C3FC0C0
7FFFFFC0
3FF9FFC0
1FF0FF80
0FC07E00
ENDCHAR
STARTCHAR ccedilla
ENCODING 231
SWIDTH 602 0
DWIDTH 29 0
BBX 20 36 5 -9
BITMAP
007F00
03FFE0
07FFF0
0FFFF0
1F80F0
3E0030
7C0010
7C0000
780000
F80000
F00000
F00000
F00000
F00000
F00000
F00000
F00000
F00000
F80000
780000
7C0000
7C0010
3E0030
1F80F0
0FFFF0
07FFE0
03FFC0
007F00
000C00
000E00
000700
000700
010F00
01FF00
01FE00
01FC00
ENDCHAR
STARTCHAR egrave
ENCODING 232
SWIDTH 602 0
DWIDTH 29 0
BBX 23 39 3 -1
BITMAP
0F8000
07C000
03C000
01E000
00F000
007800
007800
003C00
001E00
000000
000000
007F00
03FFC0
07FFE0
0FFFF0
1F81F8
3E007C
3C003C
78003C
78001E
F0001E
F0001E
FFFFFE
FFFFFE
FFFFFE
FFFFFE
F00000
F00000
F00000
F00000
780000
780000
7C0004
3E001C
1F80FC
0FFFFC
07FFF8
03FFE0
007F80
ENDCHAR
STARTCHAR eacute
ENCODING 233
SWIDTH 602 0
DWIDTH 29 0
BBX 23 39 3 -1
BITMAP
0003E0
0007C0
000780
000F00
001E00
003C00
003C00
007800
00F000
000000
000000
007F00
03FFC0
07FFE0
0FFFF0
1F81F8
3E007C
3C003C
78003C
78001E
F0001E
F0001E
FFFFFE
FFFFFE
FFFFFE
FFFFFE
F00000
F00000
F00000
F00000
780000
780000
7C0004
3E001C
1F80FC
0FFFFC
07FFF8
03FFE0
007F80
ENDCHAR
STARTCHAR ecircumflex
ENCODING 234
SWIDTH 602 0
DWIDTH 29 0
BBX 23 39 3 -1
BITMAP
007C00
007C00
00FE00
00EE00
01EF00
03C780
038380
0701C0
0F01E0
000000
000000
007F00
03FFC0
07FFE0
0FFFF0
1F81F8
3E007C
3C003C
78003C
78001E
F0001E
F0001E
FFFFFE
FFFFFE
FFFFFE
FFFFFE
F00000
F00000
F00000
F00000
780000
780000
7C0004
3E001C
1F80FC
0FFFFC
07FFF8
03FFE0
007F80
ENDCHAR
STARTCHAR edieresis
ENCODING 235
SWIDTH 602 0
DWIDTH 29 0
BBX 23 37 3 -1
BITMAP
0F87C0
0F87C0
0F87C0
0F87C0
0F87C0
000000
000000
000000
000000
007F00
03FFC0
07FFE0
0FFFF0
1F81F8
3E007C
3C003C
78003C
78001E
F0001E
F0001E
FFFFFE
FFFFFE
FFFFFE
FFFFFE
F00000
F00000
F00000
F00000
780000
780000
7C0004
3E001C
1F80FC
0FFFFC
07FFF8
03FFE0
007F80
ENDCHAR
STARTCHAR igrave
ENCODING 236
SWIDTH 602 0
DWIDTH 29 0
BBX 22 38 4 0
BITMAP
1F0000
0F8000
078000
03C000
01E000
00F000
00F000
007800
003C00
000000
000000
000000
3FF800
3FF800
3FF800
3FF800
007800
007800
007800
007800
007800
007800
007800
007800
007800
007800
007800
007800
007800
007800
007800
007800
007800
007800
FFFFFC
FFFFFC
FFFFFC
FFFFFC
ENDCHAR
STARTCHAR iacute
ENCODING 237
SWIDTH 602 0
DWIDTH 29 0
BBX 22 38 4 0
BITMAP
0007C0
000F80
000F00
001E00
003C00
007800
007800
00F000
01E000
000000
000000
000000
3FF800
3FF800
3FF800
3FF800
007800
007800
007800
007800
007800
007800
007800
007800
007800
007800
007800
007800
007800
007800
007800
007800
007800
007800
FFFFFC
FFFFFC
FFFFFC
FFFFFC
ENDCHAR
STARTCHAR icircumflex
ENCODING 238
SWIDTH 602 0
DWIDTH 29 0
BBX 22 38 4 0
BITMAP
00F800
00F800
01FC00
01DC00
03DE00
078F00
070700
0E0380
1E03C0
000000
000000
000000
3FF800
3FF800
3FF800
3FF800
007800
007800
007800
007800
007800
007800
007800
007800
007800
007800
007800
007800
007800
007800
007800
007800
007800
007800
FFFFFC
FFFFFC
FFFFFC
FFFFFC
ENDCHAR
STARTCHAR idieresis
ENCODING 239
SWIDTH 602 0
DWIDTH 29 0
BBX 22 36 4 0
BITMAP
1F0F80
1F0F80
1F0F80
1F0F80
1F0F80
000000
000000
000000
000000
000000
3FF800
3FF800
3FF800
3FF800
007800
007800
007800
007800
007800
007800
007800
007800
007800
007800
007800
007800
007800
007800
007800
007800
007800
007800
FFFFFC
FFFFFC
FFFFFC
FFFFFC
ENDCHAR
STARTCHAR eth
ENCODING 240
SWIDTH 602 0
DWIDTH 29 0
BBX 22 37 3 -1
BITMAP
0F8000
0FC060
07E3E0
03FFC0
01FE00
0FFC00
3FFE00
183F00
001F00
000F80
01FFC0
07FFC0
0FFFE0
1FFFE0
3F81F0
3E00F0
7C00F8
780078
780078
F0003C
F0003C
F0003C
F0003C
F0003C
F0003C
F0003C
F0003C
F0003C
780078
780078
7C00F8
3E01F0
3F03F0
1FFFE0
0FFFC0
07FF80
01FE00
ENDCHAR
STARTCHAR ntilde
ENCODING 241
SWIDTH 602 0
DWIDTH 29 0
BBX 20 37 5 0
BITMAP
0F0380
1FC380
1FE380
3CE780
38FF00
387F00
381E00
000000
000000
000000
007E00
F1FF80
F3FFC0
F7FFE0
FF07E0
FC01E0
F801F0
F800F0
F000F0
F000F0
F000F0
F000F0
F000F0
F000F0
F000F0
F000F0
F000F0
F000F0
F000F0
F000F0
F000F0
F000F0
F000F0
F000F0
F000F0
F000F0
F000F0
ENDCHAR
STARTCHAR ograve
ENCODING 242
SWIDTH 602 0
DWIDTH 29 0
BBX 22 39 3 -1
BITMAP
0F8000
07C000
03C000
01E000
00F000
007800
007800
003C00
001E00
000000
000000
01FE00
07FF80
0FFFC0
1FFFE0
3F03F0
3E01F0
7C00F8
780078
780078
F0003C
F0003C
F0003C
F0003C
F0003C
F0003C
F0003C
F0003C
F0003C
F0007C
780078
780078
7C00F8
3E01F0
3F03F0
1FFFE0
0FFFC0
07FF80
01FE00
ENDCHAR
STARTCHAR oacute
ENCODING 243
SWIDTH 602 0
DWIDTH 29 0
BBX 22 39 3 -1
BITMAP
0003E0
0007C0
000780
000F00
001E00
003C00
003C00
007800
00F000
000000
000000
01FE00
07FF80
0FFFC0
1FFFE0
3F03F0
3E01F0
7C00F8
780078
780078
F0003C
F0003C
F0003C
F0003C
F0003C
F0003C
F0003C
F0003C
F0003C
F0007C
780078
780078
7C00F8
3E01F0
3F03F0
1FFFE0
0FFFC0
07FF80
01FE00
ENDCHAR
STARTCHAR ocircumflex
ENCODING 244
SWIDTH 602 0
DWIDTH 29 0
BBX 22 39 3 -1
BITMAP
007C00
007C00
00FE00
00EE00
01EF00
03C780
038380
0701C0
0F01E0
000000
000000
01FE00
07FF80
0FFFC0
1FFFE0
3F03F0
3E01F0
7C00F8
780078
780078
F0003C
F0003C
F0003C
F0003C
F0003C
F0003C
F0003C
F0003C
F0003C
F0007C
780078
780078
7C00F8
3E01F0
3F03F0
1FFFE0
0FFFC0
07FF80
01FE00
ENDCHAR
STARTCHAR otilde
ENCODING 245
SWIDTH 602 0
DWIDTH 29 0
BBX 22 38 3 -1
BITMAP
03C0E0
07F0E0
07F8E0
0F39E0
0E3FC0
0E1FC0
0E0780
000000
000000
000000
01FE00
07FF80
0FFFC0
1FFFE0
3F03F0
3E01F0
7C00F8
780078
780078
F0003C
F0003C
F0003C
F0003C
F0003C
F0003C
F0003C
F0003C
F0003C
F0007C
780078
780078
7C00F8
3E01F0
3F03F0
1FFFE0
0FFFC0
07FF80
01FE00
ENDCHAR
STARTCHAR odieresis
ENCODING 246
SWIDTH 602 0
DWIDTH 29 0
BBX 22 37 3 -1
BITMAP
0F87C0
0F87C0
0F87C0
0F87C0
0F87C0
000000
000000
000000
000000
01FE00
07FF80
0FFFC0
1FFFE0
3F03F0
3E01F0
7C00F8
780078
780078
F0003C
F0003C
F0003C
F0003C
F0003C
F0003C
F0003C
F0003C
F0003C
F0007C
780078
780078
7C00F8
3E01F0
3F03F0
1FFFE0
0FFFC0
07FF80
01FE00
ENDCHAR
STARTCHAR divide
ENCODING 247
SWIDTH 602 0
DWIDTH 29 0
BBX 26 24 2 3
BITMAP
003F0000
003F0000
003F0000
003F0000
003F0000
003F0000
00000000
00000000
00000000
00000000
FFFFFFC0
FFFFFFC0
FFFFFFC0
FFFFFFC0
00000000
00000000
00000000
00000000
003F0000
003F0000
003F0000
003F0000
003F0000
003F0000
ENDCHAR
STARTCHAR oslash
ENCODING 248
SWIDTH 602 0
DWIDTH 29 0
BBX 26 30 1 -2
BITMAP
00000180
003F83C0
01FFE380
03FFF700
07FFFE00
0FC0FE00
0F807C00
1F003E00
1E007E00
1E00FE00
3C01EF00
3C03CF00
3C078F00
3C0F0F00
3C0E0F00
3C1E0F00
3C3C0F00
3C780F00
3CF00F00
3FE01F00
1FC01E00
1F801E00
1F003E00
0F807C00
1FC0FC00
3FFFF800
3BFFF000
71FFE000
F07F0000
60000000
ENDCHAR
STARTCHAR ugrave
ENCODING 249
SWIDTH 602 0
DWIDTH 29 0
BBX 20 39 5 -1
BITMAP
3E0000
1F0000
0F0000
078000
03C000
01E000
01E000
00F000
007800
000000
000000
000000
F000F0
F000F0
F000F0
F000F0
F000F0
F000F0
F000F0
F000F0
F000F0
F000F0
F000F0
F000F0
F000F0
F000F0
F000F0
F000F0
F000F0
F000F0
F001F0
F001F0
F801F0
7803F0
7E0FF0
7FFEF0
3FFCF0
1FF8F0
07E000
ENDCHAR
STARTCHAR uacute
ENCODING 250
SWIDTH 602 0
DWIDTH 29 0
BBX 20 39 5 -1
BITMAP
000F80
001F00
001E00
003C00
007800
00F000
00F000
01E000
03C000
000000
000000
000000
F000F0
F000F0
F000F0
F000F0
F000F0
F000F0
F000F0
F000F0
F000F0
F000F0
F000F0
F000F0
F000F0
F000F0
F000F0
F000F0
F000F0
F000F0
F001F0
F001F0
F801F0
7803F0
7E0FF0
7FFEF0
3FFCF0
1FF8F0
07E000
ENDCHAR
STARTCHAR ucircumflex
ENCODING 251
SWIDTH 602 0
DWIDTH 29 0
BBX 20 39 5 -1
BITMAP
01F000
01F000
03F800
03B800
07BC00
0F1E00
0E0E00
1C0700
3C0780
000000
000000
000000
F000F0
F000F0
F000F0
F000F0
F000F0
F000F0
F000F0
F000F0
F000F0
F000F0
F000F0
F000F0
F000F0
F000F0
F000F0
F000F0
F000F0
F000F0
F001F0
F001F0
F801F0
7803F0
7E0FF0
7FFEF0
3FFCF0
1FF8F0
07E000
ENDCHAR
STARTCHAR udieresis
ENCODING 252
SWIDTH 602 0
DWIDTH 29 0
BBX 20 37 5 -1
BITMAP
3E1F00
3E1F00
3E1F00
3E1F00
3E1F00
000000
000000
000000
000000
000000
F000F0
F000F0
F000F0
F000F0
F000F0
F000F0
F000F0
F000F0
F000F0
F000F0
F000F0
F000F0
F000F0
F000F0
F000F0
F000F0
F000F0
F000F0
F001F0
F001F0
F801F0
7803F0
7E0FF0
7FFEF0
3FFCF0
1FF8F0
07E000
ENDCHAR
STARTCHAR yacute
ENCODING 253
SWIDTH 602 0
DWIDTH 29 0
BBX 25 48 2 -10
BITMAP
0001F000
0003E000
0003C000
00078000
000F0000
001E0000
001E0000
003C0000
00780000
00000000
00000000
00000000
F8000F80
78000F00
78000F00
7C001F00
3C001E00
3E003E00
1E003C00
1E003C00
1F007C00
0F007800
0F80F800
0780F000
0780F000
03C1F000
03C1E000
03E3E000
01E3C000
01E3C000
00F7C000
00F78000
00FF8000
007F0000
007F0000
003F0000
003E0000
003E0000
003E0000
003C0000
007C0000
00780000
00F80000
01F80000
3FF00000
3FE00000
3FC00000
3F000000
ENDCHAR
STARTCHAR thorn
ENCODING 254
SWIDTH 602 0
DWIDTH 29 0
BBX 22 46 5 -10
BITMAP
F00000
F00000
F00000
F00000
F00000
F00000
F00000
F00000
F00000
F0FE00
F3FF80
F7FFC0
FFFFE0
FF03F0
FE01F0
FC00F8
F80078
F80078
F8003C
F0003C
F0003C
F0003C
F0003C
F0003C
F0003C
F0003C
F0003C
F0003C
F80078
F80078
FC00F8
FE01F0
FF03F0
FFFFE0
F7FFC0
F3FF80
F0FE00
F00000
F00000
F00000
F00000
F00000
F00000
F00000
F00000
F00000
ENDCHAR
STARTCHAR ydieresis
ENCODING 255
SWIDTH 602 0
DWIDTH 29 0
BBX 25 46 2 -10
BITMAP
07C3E000
07C3E000
07C3E000
07C3E000
07C3E000
00000000
00000000
00000000
00000000
00000000
F8000F80
78000F00
78000F00
7C001F00
3C001E00
3E003E00
1E003C00
1E003C00
1F007C00
0F007800
0F80F800
0780F000
0780F000
03C1F000
03C1E000
03E3E000
01E3C000
01E3C000
00F7C000
00F78000
00FF8000
007F0000
007F0000
003F0000
003E0000
003E0000
003E0000
003C0000
007C0000
00780000
00F80000
01F80000
3FF00000
3FE00000
3FC00000
3F000000
ENDCHAR
STARTCHAR .notdef
ENCODING -1
SWIDTH 602 0
DWIDTH 29 0
BBX 24 42 2 -8
BITMAP
FFFFFF
FFFFFF
FFFFFF
E00007
E00007
E00007
E00007
E00007
E00007
E00007
E00007
E00007
E00007
E00007
E00007
E00007
E00007
E00007
E00007
E00007
E00007
E00007
E00007
E00007
E00007
E00007
E00007
E00007
E00007
E00007
E00007
E00007
E00007
E00007
E00007
E00007
E00007
E00007
E00007
FFFFFF
FFFFFF
FFFFFF
ENDCHAR
STARTCHAR .null
ENCODING -1
SWIDTH 0 0
DWIDTH 0 0
BBX 1 1 0 0
BITMAP
00
ENDCHAR
STARTCHAR nonmarkingreturn
ENCODING -1
SWIDTH 602 0
DWIDTH 29 0
BBX 1 1 0 0
BITMAP
00
ENDCHAR
STARTCHAR dagger
ENCODING -1
SWIDTH 602 0
DWIDTH 29 0
BBX 22 40 3 -5
BITMAP
007800
007800
007800
007800
007800
007800
007800
007800
007800
007800
FFFFFC
FFFFFC
FFFFFC
FFFFFC
007800
007800
007800
007800
007800
007800
007800
007800
007800
007800
007800
007800
007800
007800
007800
007800
007800
007800
007800
007800
007800
007800
007800
007800
007800
007800
ENDCHAR
STARTCHAR bullet
ENCODING -1
SWIDTH 602 0
DWIDTH 29 0
BBX 14 14 7 11
BITMAP
0FC0
1FE0
3FF0
7FF8
FFFC
FFFC
FFFC
FFFC
FFFC
FFFC
7FF8
3FF0
1FE0
0FC0
ENDCHAR
STARTCHAR trademark
ENCODING -1
SWIDTH 602 0
DWIDTH 29 0
BBX 27 14 0 21
BITMAP
FFE781E0
FFE7C3E0
0E07C3E0
0E07E7E0
0E0766E0
0E077EE0
0E073CE0
0E073CE0
0E0718E0
0E0718E0
0E0700E0
0E0700E0
0E0700E0
0E0700E0
ENDCHAR
STARTCHAR notequal
ENCODING -1
SWIDTH 602 0
DWIDTH 29 0
BBX 25 28 2 1
BITMAP
00000400
00000E00
00001F00
00003E00
00007C00
00007800
0000F800
FFFFFF80
FFFFFF80
FFFFFF80
FFFFFF80
000F8000
001F0000
003E0000
003E0000
007C0000
00F80000
FFFFFF80
FFFFFF80
FFFFFF80
FFFFFF80
0F800000
1F000000
1F000000
3E000000
7C000000
38000000
10000000
ENDCHAR
STARTCHAR infinity
ENCODING -1
SWIDTH 602 0
DWIDTH 29 0
BBX 27 18 1 6
BITMAP
0F803C00
1FE0FF00
3FF1FF80
78F1E3C0
707BC1C0
F03B81C0
E01F00E0
E01F00E0
E00F00E0
E01E00E0
E01F00E0
E01F00E0
F03F81E0
707BC1C0
78F1E3C0
3FF1FF80
1FE0FF00
0F803E00
ENDCHAR
STARTCHAR lessequal
ENCODING -1
SWIDTH 602 0
DWIDTH 29 0
BBX 25 26 2 0
BITMAP
00000180
00000F80
00007F80
0007FF80
003FFF00
01FFF000
1FFF8000
FFF80000
FFC00000
FC000000
FFC00000
FFF80000
0FFF8000
01FFF000
003FFF00
0007FF80
00007F80
00000F80
00000180
00000000
00000000
00000000
FFFFFF80
FFFFFF80
FFFFFF80
FFFFFF80
ENDCHAR
STARTCHAR greaterequal
ENCODING -1
SWIDTH 602 0
DWIDTH 29 0
BBX 25 26 2 0
BITMAP
C0000000
F8000000
FF000000
FFF00000
7FFE0000
07FFC000
00FFFC00
000FFF80
0001FF80
00001F80
0001FF80
000FFF80
00FFF800
07FFC000
7FFE0000
FFF00000
FF000000
F8000000
C0000000
00000000
00000000
00000000
FFFFFF80
FFFFFF80
FFFFFF80
FFFFFF80
ENDCHAR
STARTCHAR partialdiff
ENCODING -1
SWIDTH 602 0
DWIDTH 29 0
BBX 20 31 4 0
BITMAP
00FC00
03FE00
07FF80
07E380
0781C0
0201E0
0000E0
0000E0
0000F0
0000F0
0000F0
0000F0
03F0F0
0FF8F0
1F0DF0
3E07F0
7C03F0
7803F0
7803F0
F803E0
F003E0
F003E0
F003C0
F003C0
F00780
F00780
700700
700E00
381E00
1C3800
07E000
ENDCHAR
STARTCHAR summation
ENCODING -1
SWIDTH 602 0
DWIDTH 29 0
BBX 22 46 3 -10
BITMAP
FFFFFC
FFFFFC
FFFFFC
780000
780000
3C0000
1E0000
1E0000
0F0000
078000
078000
03C000
01C000
01E000
00F000
007000
007800
003C00
003C00
001E00
000F00
000F00
000700
000F00
001E00
001E00
003C00
003C00
007800
00F000
00F000
01E000
01E000
03C000
038000
078000
0F0000
0F0000
1E0000
1C0000
3C0000
780000
780000
FFFFFC
FFFFFC
FFFFFC
ENDCHAR
STARTCHAR product
ENCODING -1
SWIDTH 602 0
DWIDTH 29 0
BBX 22 46 4 -10
BITMAP
FFFFFC
FFFFFC
FFFFFC
F0003C
F0003C
F0003C
F0003C
F0003C
F0003C
F0003C
F0003C
F0003C
F0003C
F0003C
F0003C
F0003C
F0003C
F0003C
F0003C
F0003C
F0003C
F0003C
F0003C
F0003C
F0003C
F0003C
F0003C
F0003C
F0003C
F0003C
F0003C
F0003C
F0003C
F0003C
F0003C
F0003C
F0003C
F0003C
F0003C
F0003C
F0003C
F0003C
F0003C
F0003C
F0003C
F0003C
ENDCHAR
STARTCHAR pi
ENCODING -1
SWIDTH 602 0
DWIDTH 29 0
BBX 26 26 2 0
BITMAP
FFFFFF80
FFFFFF80
FFFFFF80
FFFFFF80
1E003C00
1E003C00
1E003C00
1E003C00
1E003C00
1E003C00
1E003C00
1E003C00
1E003C00
1E003C00
1E003C00
1E003C00
1E003C00
1E003C00
1E003C00
1E003C00
1E003C00
1E003E00
1E003FC0
1E001FC0
1E001FC0
1E000FC0
ENDCHAR
STARTCHAR integral
ENCODING -1
SWIDTH 602 0
DWIDTH 29 0
BBX 22 45 3 -9
BITMAP
0001F0
0003F8
0006FC
000E7C
000C7C
001C38
001C00
001C00
003C00
003C00
003800
003800
003800
003800
007800
007800
007800
007800
007800
007800
007800
007800
007800
007800
007800
007800
007800
007800
007800
007800
007800
007000
007000
007000
00F000
00F000
00F000
00E000
70E000
F8E000
F9C000
FDC000
FF8000
7F0000
3E0000
ENDCHAR
STARTCHAR Omega
ENCODING -1
SWIDTH 602 0
DWIDTH 29 0
BBX 25 34 2 0
BITMAP
007F0000
01FFC000
07FFF000
0FFFF800
1FC1FC00
1F007C00
3E003E00
7C001E00
78000F00
78000F00
78000F00
F0000780
F0000780
F0000780
F0000780
F0000780
F0000780
F0000780
F0000780
F0000780
F0000780
78000F00
78000F00
78000F00
7C001E00
3C001E00
3E003E00
1E003C00
0F007800
0F80F800
FFC1FF80
FFC1FF80
FFC1FF80
FFC1FF80
ENDCHAR
STARTCHAR radical
ENCODING -1
SWIDTH 602 0
DWIDTH 29 0
BBX 26 41 1 -1
BITMAP
000003C0
000003C0
000003C0
00000380
00000700
00000700
00000700
00000F00
00000E00
00000E00
00001E00
00001C00
00001C00
00003C00
00003800
00003800
00003800
00007800
0E007000
7F007000
FF00F000
FF00E000
0700E000
0781E000
0381C000
0381C000
03C3C000
01C38000
01C38000
01C38000
01E78000
00E70000
00E70000
00FF0000
007E0000
007E0000
007E0000
007C0000
003C0000
003C0000
003C0000
ENDCHAR
STARTCHAR florin
ENCODING -1
SWIDTH 602 0
DWIDTH 29 0
BBX 28 46 0 -10
BITMAP
00000FE0
00001FF0
00007FF0
00007FF0
0000FC10
0000F000
0001E000
0001E000
0001E000
0001E000
0003C000
0003C000
0003C000
0003C000
0003C000
0003C000
01FFFF80
01FFFF80
01FFFF80
01FFFF80
00078000
00078000
00078000
000F0000
000F0000
000F0000
000F0000
000F0000
001F0000
001E0000
001E0000
001E0000
001E0000
001E0000
003E0000
003C0000
003C0000
003C0000
007C0000
00780000
00F80000
81F00000
FFF00000
FFE00000
FFC00000
7F000000
ENDCHAR
STARTCHAR approxequal
ENCODING -1
SWIDTH 602 0
DWIDTH 29 0
BBX 25 16 2 7
BITMAP
0FE00080
3FF80180
FFFE0780
FFFFFF80
F03FFF80
C007FE00
8001F800
00000000
00000000
0FC00080
3FF80180
FFFF0780
FFFFFF80
F03FFF80
C007FE00
8001F800
ENDCHAR
STARTCHAR Delta
ENCODING -1
SWIDTH 602 0
DWIDTH 29 0
BBX 29 33 0 0
BITMAP
000F8000
001F8000
001FC000
001FC000
003FE000
003FE000
003FE000
007FF000
007FF000
007FF000
00FFF800
00FDF800
01FDF800
01F9FC00
01F8FC00
03F8FE00
03F07E00
03F07E00
07F07F00
07E03F00
07E03F00
0FE03F80
0FC01F80
1FC01FC0
1F801FC0
1F800FC0
3F800FE0
3F0007E0
3F0007E0
7FFFFFF0
7FFFFFF0
7FFFFFF0
FFFFFFF8
ENDCHAR
STARTCHAR ellipsis
ENCODING -1
SWIDTH 602 0
DWIDTH 29 0
BBX 26 7 2 0
BITMAP
FC3F0FC0
FC3F0FC0
FC3F0FC0
FC3F0FC0
FC3F0FC0
FC3F0FC0
FC3F0FC0
ENDCHAR
STARTCHAR OE
ENCODING -1
SWIDTH 602 0
DWIDTH 29 0
BBX 27 35 2 0
BITMAP
00FFFFE0
03FFFFE0
0FFFFFE0
1FFFFFE0
3F83C000
3E03C000
7C03C000
7803C000
7803C000
7803C000
F803C000
F003C000
F003C000
F003C000
F003FFC0
F003FFC0
F003FFC0
F003FFC0
F003C000
F003C000
F003C000
F003C000
F003C000
F003C000
F003C000
7803C000
7803C000
7803C000
3C03C000
3E03C000
1F83C000
1FFFFFE0
0FFFFFE0
03FFFFE0
00FFFFE0
ENDCHAR
STARTCHAR oe
ENCODING -1
SWIDTH 602 0
DWIDTH 29 0
BBX 28 28 0 -1
BITMAP
07F03F00
0FF8FF80
1FFDFFC0
3FFFFFE0
7C1FE3E0
780FC1E0
780F80F0
780F80F0
F00780F0
F00780F0
F00780F0
F007FFF0
F007FFF0
F007FFF0
F007FFF0
F0078000
F0078000
F0078000
F0078000
F0078000
700F8000
780FC000
780FC020
7C1FE060
3FFFFFE0
1FFCFFE0
0FF87FC0
07E03F00
ENDCHAR
STARTCHAR endash
ENCODING -1
SWIDTH 602 0
DWIDTH 29 0
BBX 29 4 0 11
BITMAP
FFFFFFF8
FFFFFFF8
FFFFFFF8
FFFFFFF8
ENDCHAR
STARTCHAR emdash
ENCODING -1
SWIDTH 602 0
DWIDTH 29 0
BBX 29 4 0 11
BITMAP
FFFFFFF8
FFFFFFF8
FFFFFFF8
FFFFFFF8
ENDCHAR
STARTCHAR quotedblleft
ENCODING -1
SWIDTH 602 0
DWIDTH 29 0
BBX 19 14 5 22
BITMAP
0F01E0
1F03E0
1E03C0
3E07C0
3E07C0
3E07C0
7E0FC0
7C0F80
FC1F80
FC1F80
FC1F80
FC1F80
FC1F80
FC1F80
ENDCHAR
STARTCHAR quotedblright
ENCODING -1
SWIDTH 602 0
DWIDTH 29 0
BBX 19 14 5 22
BITMAP
3F07E0
3F07E0
3F07E0
3F07E0
3F07E0
3F07E0
3E07C0
7E0FC0
7C0F80
7C0F80
7C0F80
780F00
F81F00
F01E00
ENDCHAR
STARTCHAR quoteleft
ENCODING -1
SWIDTH 602 0
DWIDTH 29 0
BBX 8 14 11 22
BITMAP
0F
1F
1E
3E
3E
3E
7E
7C
FC
FC
FC
FC
FC
FC
ENDCHAR
STARTCHAR quoteright
ENCODING -1
SWIDTH 602 0
DWIDTH 29 0
BBX 8 14 11 22
BITMAP
3F
3F
3F
3F
3F
3F
3E
7E
7C
7C
7C
78
F8
F0
ENDCHAR
STARTCHAR lozenge
ENCODING -1
SWIDTH 602 0
DWIDTH 29 0
BBX 23 50 3 -11
BITMAP
001000
001000
003800
003800
007C00
007C00
00EC00
00EE00
00C600
01C700
018300
038380
030180
0701C0
0600C0
0E00E0
0E00E0
1C0070
1C0070
380038
380038
300018
70001C
60000C
E0000E
E0000E
60000C
70001C
300018
380038
180030
1C0070
1C0070
0E00E0
0E00E0
0600C0
0701C0
030180
038380
018300
01C700
00C600
00EE00
006C00
007C00
007C00
003800
003800
001000
001000
ENDCHAR
STARTCHAR Ydieresis
ENCODING -1
SWIDTH 602 0
DWIDTH 29 0
BBX 26 44 1 0
BITMAP
03E1F000
03E1F000
03E1F000
03E1F000
03E1F000
00000000
00000000
00000000
00000000
F80007C0
78000780
7C000F80
3E001F00
1E001E00
1F003E00
0F003C00
0F807C00
07807800
07C0F800
03E1F000
01E1E000
01F3E000
00F3C000
00FFC000
007F8000
007F8000
003F0000
001E0000
001E0000
001E0000
001E0000
001E0000
001E0000
001E0000
001E0000
001E0000
001E0000
001E0000
001E0000
001E0000
001E0000
001E0000
001E0000
001E0000
ENDCHAR
STARTCHAR fraction
ENCODING -1
SWIDTH 602 0
DWIDTH 29 0
BBX 22 39 2 -4
BITMAP
00003C
000078
000078
0000F0
0000F0
0001E0
0001E0
0001E0
0003C0
0003C0
000780
000780
000F00
000F00
001E00
001E00
003C00
003C00
007800
007800
007800
00F000
00F000
01E000
01E000
03C000
03C000
078000
078000
0F0000
0F0000
1E0000
1E0000
1E0000
3C0000
3C0000
780000
780000
F00000
ENDCHAR
STARTCHAR guilsinglleft
ENCODING -1
SWIDTH 602 0
DWIDTH 29 0
BBX 11 22 8 3
BITMAP
0020
0060
00E0
01E0
03E0
07C0
0F80
1F00
3E00
7C00
F800
F000
7C00
3E00
1F00
0F80
07C0
03E0
01E0
00E0
0060
0020
ENDCHAR
STARTCHAR guilsinglright
ENCODING -1
SWIDTH 602 0
DWIDTH 29 0
BBX 11 22 10 3
BITMAP
8000
C000
E000
F000
F800
7C00
3E00
1F00
0F80
07C0
01E0
03E0
07C0
0F80
1F00
3E00
7C00
F800
F000
E000
C000
8000
ENDCHAR
STARTCHAR fi
ENCODING -1
SWIDTH 602 0
DWIDTH 29 0
BBX 25 36 1 0
BITMAP
007F8780
01FF8780
03FF8780
03FF8780
07C00780
07800000
07800000
07800000
07800000
07800000
FFFFFF80
FFFFFF80
FFFFFF80
FFFFFF80
07800780
07800780
07800780
07800780
07800780
07800780
07800780
07800780
07800780
07800780
07800780
07800780
07800780
07800780
07800780
07800780
07800780
07800780
07800780
07800780
07800780
07800780
ENDCHAR
STARTCHAR fl
ENCODING -1
SWIDTH 602 0
DWIDTH 29 0
BBX 25 36 1 0
BITMAP
007FFF80
01FFFF80
01FFFF80
03FFFF80
07C00780
07800780
07800780
07800780
07800780
07800780
FFFF0780
FFFF0780
FFFF0780
FFFF0780
07800780
07800780
07800780
07800780
07800780
07800780
07800780
07800780
07800780
07800780
07800780
07800780
07800780
07800780
07800780
07800780
07800780
07800780
07800780
07800780
07800780
07800780
ENDCHAR
STARTCHAR daggerdbl
ENCODING -1
SWIDTH 602 0
DWIDTH 29 0
BBX 22 40 3 -5
BITMAP
007800
007800
007800
007800
007800
007800
007800
007800
007800
007800
FFFFFC
FFFFFC
FFFFFC
FFFFFC
007800
007800
007800
007800
007800
007800
007800
007800
007800
007800
007800
007800
FFFFFC
FFFFFC
FFFFFC
FFFFFC
007800
007800
007800
007800
007800
007800
007800
007800
007800
007800
ENDCHAR
STARTCHAR quotesinglbase
ENCODING -1
SWIDTH 602 0
DWIDTH 29 0
BBX 8 14 10 -7
BITMAP
3F
3F
3F
3F
3F
3F
3E
7E
7C
7C
7C
78
F8
F0
ENDCHAR
STARTCHAR quotedblbase
ENCODING -1
SWIDTH 602 0
DWIDTH 29 0
BBX 19 14 5 -7
BITMAP
3F07E0
3F07E0
3F07E0
3F07E0
3F07E0
3F07E0
3E07C0
7E0FC0
7C0F80
7C0F80
7C0F80
780F00
F81F00
F01E00
ENDCHAR
STARTCHAR perthousand
ENCODING -1
SWIDTH 602 0
DWIDTH 29 0
BBX 28 34 0 0
BITMAP
0F800000
3FE00000
7FF00000
78F00000
F0780000
E0380000
E0380000
E0380000
F0780180
78F00780
7FF03F00
3FE0FC00
0F83F000
000FC000
003F0000
01FC0000
07E00000
1F800000
7E000000
78000000
60000000
07C01F00
1FF07FC0
3FF8FFE0
3C78F1E0
783DE0F0
701DC070
701DC070
701DC070
783DE0F0
3C78F1E0
3FF8FFE0
1FF07FC0
07C01F00
ENDCHAR
STARTCHAR dotlessi
ENCODING -1
SWIDTH 602 0
DWIDTH 29 0
BBX 22 26 4 0
BITMAP
3FF800
3FF800
3FF800
3FF800
007800
007800
007800
007800
007800
007800
007800
007800
007800
007800
007800
007800
007800
007800
007800
007800
007800
007800
FFFFFC
FFFFFC
FFFFFC
FFFFFC
ENDCHAR
STARTCHAR circumflex
ENCODING -1
SWIDTH 602 0
DWIDTH 29 0
BBX 15 9 7 29
BITMAP
07C0
07C0
0FE0
0EE0
1EF0
3C78
3838
701C
F01E
ENDCHAR
STARTCHAR tilde
ENCODING -1
SWIDTH 602 0
DWIDTH 29 0
BBX 15 7 7 30
BITMAP
3C0E
7F0E
7F8E
F39E
E3FC
E1FC
E078
ENDCHAR
STARTCHAR breve
ENCODING -1
SWIDTH 602 0
DWIDTH 29 0
BBX 15 7 7 31
BITMAP
E00E
E00E
F01E
783C
7FF8
3FF8
0FE0
ENDCHAR
STARTCHAR dotaccent
ENCODING -1
SWIDTH 602 0
DWIDTH 29 0
BBX 5 5 12 31
BITMAP
F8
F8
F8
F8
F8
ENDCHAR
STARTCHAR ring
ENCODING -1
SWIDTH 602 0
DWIDTH 29 0
BBX 13 13 8 29
BITMAP
0F80
3FE0
7FF0
78F0
F078
E038
E038
E038
F078
78F0
7FF0
3FE0
0F80
ENDCHAR
STARTCHAR hungarumlaut
ENCODING -1
SWIDTH 602 0
DWIDTH 29 0
BBX 16 9 8 29
BITMAP
0F0F
1E1E
1E3C
1C3C
3C78
3870
70F0
70E0
E1E0
ENDCHAR
STARTCHAR ogonek
ENCODING -1
SWIDTH 602 0
DWIDTH 29 0
BBX 9 9 10 -9
BITMAP
3800
3000
7000
E000
E000
F080
FF80
7F80
3F80
ENDCHAR
STARTCHAR caron
ENCODING -1
SWIDTH 602 0
DWIDTH 29 0
BBX 15 9 7 29
BITMAP
F01E
701C
3838
3C78
1EF0
0EE0
0FE0
07C0
07C0
ENDCHAR
STARTCHAR Lslash
ENCODING -1
SWIDTH 602 0
DWIDTH 29 0
BBX 27 35 0 0
BITMAP
07800000
07800000
07800000
07800000
07800000
07800000
07800000
07800000
07800000
07800000
0781C000
0787E000
078FC000
07BF0000
07FE0000
07F80000
07F00000
07C00000
0F800000
1F800000
7F800000
FF800000
F7800000
47800000
07800000
07800000
07800000
07800000
07800000
07800000
07800000
07FFFFE0
07FFFFE0
07FFFFE0
07FFFFE0
ENDCHAR
STARTCHAR lslash
ENCODING -1
SWIDTH 602 0
DWIDTH 29 0
BBX 22 36 2 0
BITMAP
3FF800
3FF800
3FF800
3FF800
007800
007800
007800
007800
007800
007818
007838
0078FC
0079F0
007FE0
007F80
007F00
007C00
01F800
03F800
0FF800
1F7800
7E7800
F87800
707800
007800
007800
007800
007800
007800
007800
007C00
003E00
003FFC
001FFC
000FFC
0003FC
ENDCHAR
STARTCHAR Scaron
ENCODING -1
SWIDTH 602 0
DWIDTH 29 0
BBX 22 46 3 -1
BITMAP
0F03C0
078780
03CF00
01DE00
00FC00
00FC00
000000
000000
000000
01FE00
07FFE0
0FFFF0
1FFFF0
3F01F0
7C0070
780010
F00000
F00000
F00000
F00000
F00000
F00000
F80000
7C0000
7E0000
3FC000
1FFC00
0FFF80
03FFE0
003FF0
0003F8
0000F8
00007C
00003C
00003C
00003C
00003C
00003C
00007C
800078
E000F8
FC03F8
FFFFF0
FFFFE0
7FFF80
07FC00
ENDCHAR
STARTCHAR scaron
ENCODING -1
SWIDTH 602 0
DWIDTH 29 0
BBX 19 39 5 -1
BITMAP
3C0780
1C0700
0E0E00
0F1E00
07BC00
03B800
03F800
01F000
01F000
000000
000000
03FC00
1FFF80
3FFFC0
7FFFC0
7E03C0
F80040
F00000
F00000
F00000
F00000
F80000
7F0000
7FF800
3FFF00
0FFF80
01FFC0
000FC0
0003E0
0001E0
0001E0
0001E0
0001E0
8003E0
F80FC0
FFFFC0
FFFF80
7FFE00
07F800
ENDCHAR
STARTCHAR Zcaron
ENCODING -1
SWIDTH 602 0
DWIDTH 29 0
BBX 24 45 4 0
BITMAP
1E0780
0F0F00
079E00
03BC00
01F800
01F800
000000
000000
000000
000000
7FFFFE
7FFFFE
7FFFFE
7FFFFE
00003C
00007C
0000F8
0000F0
0001F0
0003E0
0003C0
0007C0
000F80
000F80
001F00
003E00
003E00
007C00
00F800
00F800
01F000
03E000
03E000
07C000
0F8000
0F8000
1F0000
1E0000
3E0000
7C0000
780000
FFFFFF
FFFFFF
FFFFFF
FFFFFF
ENDCHAR
STARTCHAR zcaron
ENCODING -1
SWIDTH 602 0
DWIDTH 29 0
BBX 20 38 5 0
BITMAP
3C0780
1C0700
0E0E00
0F1E00
07BC00
03B800
03F800
01F000
01F000
000000
000000
000000
7FFFF0
7FFFF0
7FFFF0
7FFFF0
0003E0
0007E0
0007C0
000F80
001F00
003E00
007E00
007C00
00F800
01F000
03E000
07E000
07C000
0F8000
1F0000
3E0000
7E0000
7C0000
FFFFF0
FFFFF0
FFFFF0
FFFFF0
ENDCHAR
STARTCHAR minus
ENCODING -1
SWIDTH 602 0
DWIDTH 29 0
BBX 25 4 2 13
BITMAP
FFFFFF80
FFFFFF80
FFFFFF80
FFFFFF80
ENDCHAR
STARTCHAR Gbreve
ENCODING -1
SWIDTH 602 0
DWIDTH 29 0
BBX 23 46 3 -1
BITMAP
0E00E0
0F01E0
0783C0
07FFC0
03FF80
00FE00
000000
000000
000000
003FC0
00FFF8
03FFFC
07FFFC
0FC07C
1F000C
1E0004
3C0000
3C0000
780000
780000
780000
F80000
F00000
F00000
F00000
F00000
F00000
F003FE
F003FE
F003FE
F003FE
F0001E
F0001E
F0001E
78001E
78001E
78001E
3C001E
3C001E
1E001E
1F001E
0FC07E
07FFFE
03FFFC
01FFF0
003F80
ENDCHAR
STARTCHAR gbreve
ENCODING -1
SWIDTH 602 0
DWIDTH 29 0
BBX 22 48 3 -10
BITMAP
0E00E0
0E00E0
0F01E0
0783C0
07FF80
03FF80
00FE00
000000
000000
000000
000000
01FC00
07FF3C
0FFFBC
1FFFBC
3F03FC
3E01FC
7C00FC
78007C
78007C
F0003C
F0003C
F0003C
F0003C
F0003C
F0003C
F0003C
F0003C
F0003C
78007C
78007C
7C00FC
3E01FC
3F03FC
1FFFBC
0FFFBC
07FF3C
01FC3C
00003C
00003C
000078
000078
1000F8
1E03F0
1FFFF0
1FFFE0
0FFF80
01FE00
ENDCHAR
STARTCHAR Idotaccent
ENCODING -1
SWIDTH 602 0
DWIDTH 29 0
BBX 18 44 5 0
BITMAP
01F000
01F000
01F000
01F000
01F000
000000
000000
000000
000000
FFFFC0
FFFFC0
FFFFC0
FFFFC0
01E000
01E000
01E000
01E000
01E000
01E000
01E000
01E000
01E000
01E000
01E000
01E000
01E000
01E000
01E000
01E000
01E000
01E000
01E000
01E000
01E000
01E000
01E000
01E000
01E000
01E000
01E000
FFFFC0
FFFFC0
FFFFC0
FFFFC0
ENDCHAR
STARTCHAR Scedilla
ENCODING -1
SWIDTH 602 0
DWIDTH 29 0
BBX 22 45 3 -9
BITMAP
01FE00
07FFE0
0FFFF0
1FFFF0
3F01F0
7C0070
780010
F00000
F00000
F00000
F00000
F00000
F00000
F80000
7C0000
7E0000
3FC000
1FFC00
0FFF80
03FFE0
003FF0
0003F8
0000F8
00007C
00003C
00003C
00003C
00003C
00003C
00007C
800078
E000F8
FC03F8
FFFFF0
FFFFE0
7FFF80
07FC00
000C00
000E00
000700
000700
010F00
01FF00
01FE00
01FC00
ENDCHAR
STARTCHAR scedilla
ENCODING -1
SWIDTH 602 0
DWIDTH 29 0
BBX 19 36 5 -9
BITMAP
03FC00
1FFF80
3FFFC0
7FFFC0
7E03C0
F80040
F00000
F00000
F00000
F00000
F80000
7F0000
7FF800
3FFF00
0FFF80
01FFC0
000FC0
0003E0
0001E0
0001E0
0001E0
0001E0
8003E0
F80FC0
FFFFC0
FFFF80
7FFE00
07F800
003000
003800
001C00
001C00
043C00
07FC00
07F800
07F000
ENDCHAR
STARTCHAR Cacute
ENCODING -1
SWIDTH 602 0
DWIDTH 29 0
BBX 22 46 3 -1
BITMAP
0003E0
0007C0
000780
000F00
001E00
003C00
000000
000000
000000
003FC0
00FFF8
03FFFC
07FFFC
0FE07C
1F800C
1E0004
3E0000
3C0000
780000
780000
780000
780000
F00000
F00000
F00000
F00000
F00000
F00000
F00000
F00000
F00000
F00000
F00000
F80000
780000
780000
780000
3C0000
3E0000
1E0004
1F000C
0FC07C
07FFFC
03FFFC
00FFF8
003FC0
ENDCHAR
STARTCHAR cacute
ENCODING -1
SWIDTH 602 0
DWIDTH 29 0
BBX 20 39 5 -1
BITMAP
0003E0
0007C0
000780
000F00
001E00
003C00
003C00
007800
00F000
000000
000000
007F00
03FFE0
07FFF0
0FFFF0
1F80F0
3E0030
7C0010
7C0000
780000
F80000
F00000
F00000
F00000
F00000
F00000
F00000
F00000
F00000
F80000
780000
7C0000
7C0010
3E0030
1F80F0
0FFFF0
07FFE0
03FFC0
007F00
ENDCHAR
STARTCHAR Ccaron
ENCODING -1
SWIDTH 602 0
DWIDTH 29 0
BBX 22 46 3 -1
BITMAP
03C0F0
01E1E0
00F3C0
007780
003F00
003F00
000000
000000
000000
003FC0
00FFF8
03FFFC
07FFFC
0FE07C
1F800C
1E0004
3E0000
3C0000
780000
780000
780000
780000
F00000
F00000
F00000
F00000
F00000
F00000
F00000
F00000
F00000
F00000
F00000
F80000
780000
780000
780000
3C0000
3E0000
1E0004
1F000C
0FC07C
07FFFC
03FFFC
00FFF8
003FC0
ENDCHAR
STARTCHAR ccaron
ENCODING -1
SWIDTH 602 0
DWIDTH 29 0
BBX 20 39 5 -1
BITMAP
0F01E0
0701C0
038380
03C780
01EF00
00EE00
00FE00
007C00
007C00
000000
000000
007F00
03FFE0
07FFF0
0FFFF0
1F80F0
3E0030
7C0010
7C0000
780000
F80000
F00000
F00000
F00000
F00000
F00000
F00000
F00000
F00000
F80000
780000
7C0000
7C0010
3E0030
1F80F0
0FFFF0
07FFE0
03FFC0
007F00
ENDCHAR
STARTCHAR dcroat
ENCODING -1
SWIDTH 602 0
DWIDTH 29 0
BBX 26 37 3 -1
BITMAP
00003C00
00003C00
00003C00
001FFFC0
001FFFC0
001FFFC0
00003C00
00003C00
00003C00
01FC3C00
07FF3C00
0FFFBC00
1FFFFC00
3F03FC00
3E01FC00
7C00FC00
78007C00
78007C00
F0007C00
F0003C00
F0003C00
F0003C00
F0003C00
F0003C00
F0003C00
F0003C00
F0003C00
F0007C00
78007C00
78007C00
7C00FC00
3E01FC00
3F03FC00
1FFFFC00
0FFFBC00
07FF3C00
01FC0000
ENDCHAR
STARTCHAR periodcentered
ENCODING -1
SWIDTH 602 0
DWIDTH 29 0
BBX 6 7 11 13
BITMAP
FC
FC
FC
FC
FC
FC
FC
ENDCHAR
STARTCHAR Euro
ENCODING -1
SWIDTH 602 0
DWIDTH 29 0
BBX 24 37 1 -1
BITMAP
0007F8
001FFE
003FFF
007FFF
00FC0F
01F003
03E001
03C000
03C000
078000
078000
078000
0F8000
0F0000
7FFFF0
7FFFE0
FFFFE0
0F0000
0F0000
0F0000
0F0000
7FFF80
7FFF00
FFFF00
0F0000
0F8000
078000
078000
07C000
03C000
03E001
01F003
01FC0F
00FFFF
007FFF
001FFE
0007F8
ENDCHAR
STARTCHAR c6459
ENCODING -1
SWIDTH 602 0
DWIDTH 29 0
BBX 14 5 7 30
BITMAP
F87C
F87C
F87C
F87C
F87C
ENDCHAR
STARTCHAR c6460
ENCODING -1
SWIDTH 602 0
DWIDTH 29 0
BBX 9 6 11 30
BITMAP
0F80
1F00
1E00
3C00
7800
F000
ENDCHAR
STARTCHAR c6461
ENCODING -1
SWIDTH 602 0
DWIDTH 29 0
BBX 15 5 7 30
BITMAP
3E0E
7F8E
FFFE
E3FC
E0F8
ENDCHAR
STARTCHAR c6468
ENCODING -1
SWIDTH 602 0
DWIDTH 29 0
BBX 9 6 9 30
BITMAP
F800
7C00
3C00
1E00
0F00
0780
ENDCHAR
STARTCHAR c6470
ENCODING -1
SWIDTH 602 0
DWIDTH 29 0
BBX 14 6 7 30
BITMAP
0FC0
0FC0
1FE0
3CF0
7878
F03C
ENDCHAR
STARTCHAR c6472
ENCODING -1
SWIDTH 602 0
DWIDTH 29 0
BBX 14 6 7 30
BITMAP
F03C
7878
3CF0
1DE0
0FC0
0FC0
ENDCHAR
STARTCHAR c6477
ENCODING -1
SWIDTH 602 0
DWIDTH 29 0
BBX 25 9 1 11
BITMAP
00000300
00003F80
0003FF80
003FFE00
03FFE000
3FFE0000
FFE00000
FE000000
E0000000
ENDCHAR
STARTCHAR c6478
ENCODING -1
SWIDTH 602 0
DWIDTH 29 0
BBX 15 20 6 16
BITMAP
00F0
01F0
01F0
03F0
0770
0670
0E70
1C70
1C70
3870
3070
7070
E070
FFFE
FFFE
FFFE
0070
0070
0070
0070
ENDCHAR
STARTCHAR c6475
ENCODING -1
SWIDTH 602 0
DWIDTH 29 0
BBX 15 6 7 30
BITMAP
E00E
F01E
783C
7FFC
3FF8
0FE0
ENDCHAR
STARTCHAR c6476
ENCODING -1
SWIDTH 602 0
DWIDTH 29 0
BBX 5 5 12 30
BITMAP
F8
F8
F8
F8
F8
ENDCHAR
ENDFONT
